<svg width="523" height="519" viewBox="0 0 523 519" fill="none" xmlns="http://www.w3.org/2000/svg">
<path d="M507.901 51.5837H384.565V180.153H507.901V51.5837Z" fill="#E0E0E0"/>
<path d="M499.549 51.5837H376.212V180.153H499.549V51.5837Z" fill="#FAFAFA"/>
<path d="M499.583 180.188H376.166V51.5375H499.583V180.188ZM376.247 180.107H499.502V51.6183H376.247V180.107Z" fill="#E0E0E0"/>
<path d="M482.971 68.8665H392.79V162.87H482.971V68.8665Z" fill="#FAFAFA"/>
<path d="M392.79 163.483C392.154 164.432 391.406 165.301 390.561 166.071C389.128 167.595 387.095 169.652 384.784 171.847C382.474 174.042 380.429 176.075 378.893 177.485C378.116 178.309 377.243 179.038 376.293 179.656C376.929 178.717 377.669 177.852 378.5 177.08C379.944 175.567 381.966 173.499 384.276 171.304C386.587 169.109 388.643 167.076 390.18 165.655C390.961 164.831 391.838 164.101 392.79 163.483Z" fill="#E0E0E0"/>
<path d="M482.971 163.252C483.912 163.894 484.776 164.642 485.547 165.481C487.072 166.925 489.128 168.947 491.323 171.258C493.518 173.568 495.551 175.613 496.972 177.15C497.797 177.928 498.523 178.805 499.133 179.76C498.195 179.118 497.331 178.374 496.556 177.542C495.043 176.098 492.975 174.077 490.78 171.766C488.585 169.455 486.552 167.399 485.142 165.863C484.306 165.092 483.576 164.214 482.971 163.252Z" fill="#E0E0E0"/>
<path d="M482.716 69.1091C483.36 68.1651 484.108 67.297 484.946 66.5213C486.379 65.0079 488.412 62.9515 490.722 60.7449C493.033 58.5384 495.078 56.5282 496.614 55.1072C497.399 54.2858 498.275 53.557 499.225 52.9353C498.59 53.8785 497.845 54.7433 497.007 55.5116C495.563 57.0365 493.541 59.0929 491.231 61.2879C488.92 63.4829 486.864 65.5277 485.327 66.9372C484.554 67.77 483.676 68.5 482.716 69.1091Z" fill="#E0E0E0"/>
<path d="M392.548 69.3401C391.6 68.7062 390.731 67.9616 389.96 67.122C388.435 65.6779 386.379 63.6562 384.184 61.3457C381.989 59.0351 379.955 57.0019 378.534 55.4654C377.713 54.6842 376.988 53.8077 376.374 52.8545C377.315 53.4922 378.18 54.2365 378.95 55.0726C380.464 56.5051 382.532 58.5384 384.727 60.8489C386.922 63.1594 388.955 65.2158 390.376 66.7523C391.197 67.5283 391.926 68.3967 392.548 69.3401Z" fill="#E0E0E0"/>
<path d="M482.716 162.859C482.716 162.859 482.716 162.697 482.716 162.408C482.716 162.12 482.716 161.657 482.716 161.091C482.716 159.936 482.716 158.215 482.716 156.02C482.716 151.56 482.716 145.091 482.624 136.865C482.624 120.403 482.52 96.9394 482.451 68.8665L482.797 69.213H392.883L393.276 68.8202C393.276 103.316 393.276 135.595 393.276 162.813L392.929 162.478L458.04 162.651L476.328 162.743H481.168H482.416H482.855C482.724 162.755 482.593 162.755 482.462 162.743H481.249H476.478L458.259 162.836L392.929 163.009H392.583V162.662C392.583 135.444 392.583 103.166 392.525 68.6701V68.2657H392.941H482.855H483.202V68.6123C483.132 96.7777 483.075 120.31 483.028 136.831C483.028 145.022 482.959 151.48 482.936 155.904C482.936 158.076 482.936 159.751 482.936 160.918C482.936 161.461 482.936 161.877 482.936 162.189C482.895 162.422 482.821 162.647 482.716 162.859Z" fill="#E0E0E0"/>
<path d="M440.515 105.743C438.891 103.337 436.649 101.412 434.025 100.171C431.401 98.9296 428.491 98.4174 425.601 98.688C422.711 98.9586 419.947 100.002 417.599 101.709C415.251 103.415 413.406 105.723 412.257 108.388C411.358 110.659 410.916 113.085 410.956 115.528C410.995 117.97 411.516 120.38 412.488 122.621C414.472 127.101 417.705 130.915 421.799 133.608C432.347 140.793 447.631 140.47 457.439 132.302C461.216 129.363 463.784 125.142 464.66 120.438C465.062 117.706 464.69 114.917 463.587 112.386C462.483 109.855 460.692 107.684 458.417 106.12C456.142 104.556 453.474 103.661 450.716 103.537C447.957 103.413 445.22 104.065 442.813 105.419" fill="#E0E0E0"/>
<path d="M440.561 105.731C440.212 104.452 439.423 103.338 438.332 102.585C437.241 101.832 435.919 101.49 434.6 101.618L438.123 105.812C437.157 105.95 436.246 106.345 435.484 106.954C434.723 107.564 434.138 108.366 433.791 109.278C433.618 109.705 433.571 110.306 433.976 110.525C434.123 110.57 434.277 110.585 434.43 110.569C434.583 110.553 434.731 110.507 434.865 110.433L439.151 108.654C439.447 111.047 440.323 113.332 441.704 115.308C442.687 113.21 443.237 110.935 443.322 108.619L448.058 110.71C447.678 109.358 446.902 108.151 445.829 107.244C447.232 106.971 448.574 106.447 449.791 105.696C450.161 105.465 450.565 105.072 450.392 104.68C450.219 104.287 449.884 104.287 449.549 104.264C446.421 103.96 443.275 104.613 440.526 106.135" fill="#EBEBEB"/>
<path d="M440.249 107.499C440.989 102.706 440.594 97.8074 439.094 93.1964C440.249 92.9422 441.612 92.7805 442.34 93.67C442.712 94.2365 442.879 94.9132 442.813 95.5878C442.868 100.107 442.007 104.591 440.283 108.769" fill="#EBEBEB"/>
<path d="M417.247 124.654C416.965 124.447 416.716 124.197 416.508 123.915C415.897 123.176 415.366 122.375 414.925 121.523C413.421 118.699 412.889 115.458 413.411 112.301C413.933 109.143 415.481 106.246 417.814 104.056C418.518 103.392 419.293 102.807 420.124 102.311C420.407 102.105 420.724 101.949 421.06 101.849C420.025 102.608 419.041 103.434 418.114 104.322C415.928 106.515 414.482 109.336 413.976 112.39C413.471 115.445 413.932 118.582 415.295 121.362C415.875 122.5 416.527 123.6 417.247 124.654Z" fill="white"/>
<path d="M421.996 128.259C421.996 128.386 421.198 128.259 420.448 127.681C419.697 127.103 419.292 126.526 419.408 126.41C419.523 126.295 420.055 126.768 420.748 127.265C421.441 127.762 422.053 128.12 421.996 128.259Z" fill="white"/>
<path d="M229.47 14.13H57.694V193.196H229.47V14.13Z" fill="#E0E0E0"/>
<path d="M217.837 14.13H46.0605V193.196H217.837V14.13Z" fill="#FAFAFA"/>
<path d="M217.895 193.242H46.0027V14.0722H217.895V193.242ZM46.1413 193.138H217.779V14.1762H46.1413V193.138Z" fill="#E0E0E0"/>
<path d="M194.743 38.1942H69.1542V169.109H194.743V38.1942Z" fill="#FAFAFA"/>
<path d="M69.1542 169.987C68.2611 171.301 67.2225 172.51 66.0581 173.591C64.048 175.705 61.2291 178.571 58.0752 181.678C54.9214 184.786 52.0101 187.558 49.8613 189.522C47.7125 191.486 46.3955 192.665 46.2338 192.549C47.1202 191.237 48.1553 190.031 49.3183 188.956C51.3285 186.842 54.1473 183.977 57.3243 180.87C60.5013 177.762 63.401 174.966 65.5383 172.991C67.6755 171.015 69.0503 169.871 69.1542 169.987Z" fill="#E0E0E0"/>
<path d="M194.743 169.71C196.059 170.605 197.268 171.648 198.348 172.817C200.462 174.816 203.327 177.635 206.434 180.8C209.542 183.966 212.315 186.854 214.29 189.003C215.437 190.086 216.45 191.304 217.306 192.63C215.996 191.745 214.794 190.71 213.724 189.546C211.599 187.547 208.733 184.717 205.637 181.551C202.541 178.386 199.734 175.463 197.77 173.326C195.806 171.188 194.628 169.767 194.743 169.71Z" fill="#E0E0E0"/>
<path d="M194.397 38.5523C195.281 37.235 196.316 36.0254 197.481 34.9478C199.48 32.8222 202.299 29.9571 205.464 26.861C208.629 23.7649 211.529 20.9807 213.666 19.0052C214.75 17.858 215.968 16.8456 217.294 15.9899C217.409 16.0939 216.22 17.4571 214.209 19.5713C212.199 21.6854 209.38 24.562 206.215 27.6581C203.05 30.7542 200.138 33.5615 197.989 35.5255C195.841 37.4894 194.501 38.6678 194.397 38.5523Z" fill="#E0E0E0"/>
<path d="M68.8077 38.8642C67.4865 37.9802 66.2764 36.9407 65.2032 35.7681C63.0891 33.7579 60.224 30.9506 57.1164 27.7852C54.0087 24.6198 51.2245 21.72 49.2605 19.5828C48.1154 18.4941 47.0997 17.2769 46.2338 15.9553C46.3493 15.8397 47.7125 17.0297 49.8266 19.0283C51.9408 21.0269 54.8174 23.8688 57.9135 27.0343C61.0096 30.1997 63.8054 33.111 65.7809 35.2598C66.9278 36.3382 67.9438 37.548 68.8077 38.8642Z" fill="#E0E0E0"/>
<path d="M194.397 169.12C194.397 169.12 194.397 168.889 194.397 168.485C194.397 168.081 194.397 167.434 194.397 166.66C194.397 165.004 194.397 162.647 194.397 159.59C194.397 153.386 194.327 144.363 194.27 132.903C194.27 109.971 194.119 77.3115 194.027 38.171L194.501 38.6563L69.2698 38.7256L69.8243 38.171C69.8243 86.2301 69.7665 131.182 69.7434 169.097L69.2698 168.612L159.958 168.866L185.432 168.982L192.167 169.04H193.911C194.111 169.025 194.312 169.025 194.512 169.04C194.331 169.051 194.15 169.051 193.969 169.04H192.271L185.628 169.097L160.212 169.224L69.2236 169.467H68.7499V168.993C68.7499 131.078 68.6921 86.1261 68.669 38.0671V37.5125H69.2351L194.466 37.5819H194.963V38.0671C194.87 77.3461 194.778 110.086 194.72 133.088C194.72 144.502 194.628 153.49 194.593 159.659C194.593 162.686 194.593 165.019 194.535 166.59C194.535 167.341 194.535 167.931 194.535 168.358C194.518 168.617 194.471 168.872 194.397 169.12Z" fill="#E0E0E0"/>
<path d="M131.412 62.8475C130.984 64.2916 123.625 75.8905 113.02 79.8299C102.414 83.7694 94.5354 88.1363 97.4698 93.3234C100.404 98.5106 113.447 95.6917 113.447 95.6917C113.447 95.6917 87.0031 124.435 111.899 140.863C142.248 160.883 173.972 89.1876 173.972 89.1876L131.412 62.8475Z" fill="#EBEBEB"/>
<path d="M168.969 99.0305C168.888 99.1691 158.884 93.2541 146.626 85.7102C134.369 78.1664 124.491 72.0434 124.572 71.8471C124.653 71.6507 134.658 77.6234 146.927 85.1673C159.196 92.7112 169.05 98.8918 168.969 99.0305Z" fill="#E0E0E0"/>
<path d="M164.279 107.626C164.186 107.764 153.385 101.422 140.134 93.4621C126.883 85.5023 116.208 78.9404 116.289 78.8017C116.37 78.6631 127.172 85.0055 140.434 92.9653C153.697 100.925 164.36 107.487 164.279 107.626Z" fill="#E0E0E0"/>
<path d="M158.606 115.77C158.514 115.909 146.384 108.769 131.492 99.8276C116.601 90.8858 104.598 83.5152 104.679 83.3881C104.76 83.2611 116.901 90.3891 131.793 99.3308C146.684 108.273 158.687 115.643 158.606 115.77Z" fill="#E0E0E0"/>
<path d="M151.525 125.81C151.432 125.948 142.028 120.206 130.51 112.998C118.992 105.789 109.716 99.8276 109.808 99.7005C109.9 99.5734 119.293 105.304 130.822 112.512C142.352 119.721 151.606 125.717 151.525 125.81Z" fill="#E0E0E0"/>
<path d="M143.184 135.595C143.103 135.722 134.346 130.072 123.625 122.968C112.904 115.863 104.297 109.994 104.378 109.867C104.459 109.74 113.228 115.389 123.949 122.494C134.669 129.599 143.288 135.456 143.184 135.595Z" fill="#E0E0E0"/>
<path d="M132.578 142.341C132.114 142.184 131.668 141.975 131.25 141.718C130.418 141.29 129.217 140.632 127.784 139.811C124.85 138.159 120.852 135.779 116.52 133.007C112.188 130.234 108.364 127.589 105.638 125.613C104.274 124.62 103.188 123.811 102.449 123.233C102.029 122.963 101.641 122.645 101.294 122.286C101.734 122.498 102.152 122.753 102.541 123.048L105.845 125.278C108.63 127.173 112.477 129.761 116.797 132.522C121.118 135.283 125.081 137.72 127.957 139.453L131.423 141.533C131.835 141.762 132.222 142.033 132.578 142.341Z" fill="#E0E0E0"/>
<path d="M107.682 96.3387C105.58 95.8092 103.591 94.901 101.814 93.6585C99.9397 92.5698 98.2767 91.1533 96.9037 89.4764C97.0193 89.3493 99.1449 91.2902 102.126 93.1733C105.106 95.0563 107.752 96.1885 107.682 96.3387Z" fill="#E0E0E0"/>
<path d="M171.996 87.6857C171.89 87.906 171.763 88.115 171.615 88.3096L170.46 90.0194C169.431 91.5097 167.906 93.6353 166 96.2578C162.188 101.48 156.758 108.619 150.67 116.359C144.582 124.1 138.782 130.939 134.496 135.837C132.382 138.286 130.661 140.25 129.448 141.614L128.073 143.138C127.919 143.33 127.745 143.505 127.553 143.658C127.68 143.448 127.827 143.251 127.992 143.069L129.309 141.463L134.23 135.583C138.378 130.627 144.062 123.73 150.196 116.013C156.331 108.296 161.749 101.191 165.654 96.0268L170.275 89.9038L171.545 88.2518C171.681 88.0521 171.832 87.8629 171.996 87.6857Z" fill="#E0E0E0"/>
<path d="M163.389 81.5628C163.516 81.6668 152.992 95.426 139.845 112.293C126.698 129.16 115.966 142.769 115.85 142.665C115.735 142.561 126.247 128.802 139.394 111.935C152.541 95.0679 163.262 81.4704 163.389 81.5628Z" fill="#E0E0E0"/>
<path d="M151.386 74.7583C151.305 74.9991 151.192 75.2283 151.051 75.4399L149.965 77.3461C149.018 78.9866 147.585 81.3433 145.737 84.1853C142.052 89.9616 136.576 97.5286 130.106 105.639C123.637 113.749 117.548 120.877 113.147 126.041L107.902 132.129L106.446 133.769C106.29 133.97 106.112 134.152 105.915 134.312C106.046 134.095 106.197 133.89 106.365 133.7L107.729 131.99L112.835 125.786C117.167 120.553 123.232 113.39 129.655 105.28C136.079 97.1705 141.636 89.6035 145.39 83.9658C147.285 81.1469 148.764 78.8364 149.78 77.2306L150.936 75.3822C151.07 75.1632 151.22 74.9547 151.386 74.7583Z" fill="#E0E0E0"/>
<path d="M141.543 69.1206C141.67 69.213 132.682 81.1123 121.476 95.6917C110.27 110.271 101.074 122.009 100.947 121.916C100.82 121.824 109.808 109.925 121.014 95.3451C132.22 80.7657 141.416 69.0282 141.543 69.1206Z" fill="#E0E0E0"/>
<path d="M134.138 64.2916C133.858 64.8437 133.542 65.3764 133.191 65.8859C132.867 66.3942 132.474 67.0411 131.966 67.6765C131.458 68.3119 130.926 69.1553 130.233 69.9871C128.686 71.9444 127.019 73.8041 125.242 75.5554C123.066 77.69 120.751 79.6776 118.311 81.5051C115.836 83.2976 113.247 84.9261 110.559 86.3803C108.356 87.5507 106.084 88.5847 103.754 89.4764C102.772 89.8923 101.848 90.1696 101.051 90.4468C100.254 90.7241 99.5493 90.9205 98.9717 91.0707C98.3852 91.2679 97.782 91.411 97.1694 91.4981C97.7294 91.2408 98.3088 91.0284 98.9023 90.8627C99.4684 90.6779 100.162 90.4468 100.936 90.1464C101.71 89.8461 102.634 89.5342 103.604 89.1067C105.894 88.1611 108.13 87.0929 110.305 85.9066C112.962 84.4443 115.524 82.816 117.976 81.0314C120.405 79.2235 122.72 77.2674 124.907 75.1742C126.689 73.4543 128.374 71.6377 129.956 69.7329C130.661 68.9358 131.215 68.1617 131.747 67.5032C132.278 66.8447 132.694 66.2671 133.04 65.7819C133.365 65.2559 133.732 64.7574 134.138 64.2916Z" fill="#E0E0E0"/>
<path d="M101.652 410.814C101.155 410.929 104.875 429.668 104.875 429.668H114.429L118.646 411.553C113.169 409.683 107.27 409.427 101.652 410.814Z" fill="#E0E0E0"/>
<path d="M95.8986 516.289C95.8986 516.289 81.8506 477.01 83.8146 466.278C85.7785 455.546 90.0068 453.351 93.3686 449.977C96.7304 446.604 99.5608 443.796 100.404 440.423C101.248 437.05 100.404 423.556 100.404 423.556C100.404 423.556 97.8741 419.628 98.7175 418.219C99.5608 416.809 120.356 418.219 120.356 418.219C120.239 419.937 119.655 421.59 118.669 423.002C118.669 423.002 118.103 438.736 118.946 440.423C119.79 442.11 132.717 456.447 134.681 463.748C136.645 471.049 126.918 516.289 126.918 516.289H95.8986Z" fill="#F5F5F5"/>
<path d="M95.8986 516.289C96.0834 516.28 96.2685 516.28 96.4532 516.289H98.0359H104.136L126.918 516.185L126.733 516.336C127.888 510.559 129.228 504.136 130.545 496.996C131.862 489.857 133.225 482.082 134.184 473.741C134.404 471.65 134.612 469.524 134.658 467.375C134.709 466.309 134.643 465.239 134.461 464.187C134.182 463.137 133.794 462.119 133.306 461.149C131.156 457.147 128.646 453.35 125.808 449.804C124.388 447.955 122.92 446.119 121.43 444.259C120.679 443.334 119.928 442.41 119.2 441.44C119.009 441.188 118.831 440.926 118.669 440.654C118.549 440.342 118.467 440.016 118.426 439.684C118.334 439.071 118.299 438.471 118.265 437.858C118.057 432.995 118.195 428.062 118.345 423.071V422.99V422.909C118.584 422.538 118.8 422.152 118.992 421.754C119.545 420.674 119.882 419.497 119.986 418.288L120.263 418.589C115.515 418.288 110.836 418.057 106.25 417.976C103.997 417.895 101.742 417.984 99.5031 418.242C99.2984 418.28 99.1001 418.346 98.9139 418.438C98.8062 418.628 98.7578 418.845 98.7753 419.062C98.8104 419.584 98.9233 420.098 99.1103 420.587C99.5061 421.594 99.9974 422.562 100.577 423.475V423.545V423.614C100.785 427.207 100.924 430.742 100.936 434.219C100.963 435.951 100.897 437.682 100.739 439.406C100.527 441.129 99.8829 442.77 98.8677 444.178C97.9042 445.532 96.8341 446.807 95.6676 447.99C94.5123 449.145 93.3571 450.301 92.2018 451.398C91.0259 452.422 89.9183 453.522 88.8862 454.691C87.9701 455.83 87.1944 457.075 86.5756 458.399C85.343 461.034 84.4911 463.831 84.0456 466.705C83.9014 468.076 83.9014 469.459 84.0456 470.83C84.138 472.193 84.3229 473.521 84.5193 474.838C85.3511 480.049 86.5525 484.808 87.6731 489.118C89.9837 497.713 92.1556 504.483 93.6574 509.127C94.4083 511.437 94.9975 513.216 95.4019 514.453C95.5983 515.042 95.7485 515.492 95.8524 515.827C95.9564 516.162 95.9911 516.301 95.9911 516.301L95.8062 515.839C95.6907 515.515 95.5174 515.065 95.3095 514.487C94.8705 513.332 94.2466 511.507 93.461 509.196C91.9014 504.575 89.6718 497.805 87.315 489.21C85.9922 484.501 84.9125 479.727 84.0803 474.908C83.8839 473.591 83.6875 472.251 83.5835 470.864C83.4337 469.459 83.4337 468.042 83.5835 466.636C84.0178 463.709 84.8738 460.861 86.1251 458.18C86.8038 456.782 87.6536 455.474 88.6551 454.286C89.7055 453.101 90.8282 451.982 92.0169 450.936C93.1722 449.873 94.3275 448.718 95.4827 447.551C96.6312 446.391 97.6786 445.135 98.6135 443.796C99.5833 442.463 100.196 440.904 100.393 439.268C100.542 437.566 100.604 435.858 100.577 434.15C100.577 430.684 100.404 427.218 100.196 423.579V423.718C99.5938 422.769 99.0868 421.763 98.6828 420.714C98.46 420.166 98.3311 419.584 98.3016 418.993C98.278 418.647 98.3672 418.302 98.5558 418.011C98.821 417.778 99.1519 417.633 99.5031 417.595C101.779 417.318 104.074 417.225 106.365 417.318C110.986 417.387 115.607 417.618 120.413 417.919H120.714V418.196C120.627 419.515 120.265 420.802 119.651 421.973C119.445 422.371 119.217 422.756 118.969 423.129L119.027 422.979C118.877 427.958 118.738 432.891 118.946 437.708C118.966 438.3 119.016 438.89 119.096 439.476C119.128 439.748 119.19 440.015 119.281 440.273C119.427 440.515 119.589 440.746 119.766 440.966C120.471 441.925 121.234 442.849 121.973 443.773C123.463 445.633 124.93 447.47 126.351 449.33C129.214 452.909 131.74 456.746 133.895 460.79C134.386 461.8 134.773 462.857 135.051 463.944C135.235 465.043 135.301 466.159 135.247 467.271C135.247 469.455 134.993 471.592 134.762 473.683C133.78 482.059 132.359 489.857 131.042 496.973C129.725 504.09 128.373 510.582 127.149 516.301V516.463H126.987L104.113 516.37H98.0474H96.4878L95.8986 516.289Z" fill="#E0E0E0"/>
<path d="M124.226 512.223C127.79 499.075 130.152 485.63 131.284 472.054C131.4 470.506 131.4 468.716 130.233 467.687C128.801 466.44 126.606 467.11 124.792 467.687C119.46 469.373 113.787 469.675 108.306 468.565C102.98 467.468 97.7009 465.03 92.3289 465.908C91.6572 465.975 91.0053 466.174 90.4106 466.493C89.8159 466.812 89.29 467.245 88.8631 467.768C87.9851 469.062 88.193 470.772 88.4472 472.308C90.5498 485.513 94.8589 500.705 98.3593 512.223H124.226Z" fill="#E0E0E0"/>
<path d="M127.761 469.305C127.473 469.732 127.132 470.121 126.744 470.46C125.746 471.379 124.676 472.218 123.544 472.967C119.808 475.531 115.513 477.163 111.017 477.728C106.521 478.293 101.955 477.773 97.7009 476.213C96.4224 475.749 95.1824 475.185 93.9925 474.527C93.5403 474.306 93.1173 474.031 92.7332 473.706C92.791 473.602 94.6047 474.734 97.8395 475.809C102.042 477.228 106.511 477.679 110.913 477.127C115.314 476.574 119.534 475.034 123.255 472.62C126.201 470.772 127.68 469.224 127.761 469.305Z" fill="white"/>
<path d="M362.084 255.95C358.486 256.351 354.856 256.351 351.259 255.95C354.856 255.55 358.486 255.55 362.084 255.95Z" fill="#FAFAFA"/>
<path d="M522.111 517.768C522.111 517.941 405.233 518.08 261.09 518.08C116.948 518.08 0 517.941 0 517.768C0 517.595 116.844 517.445 261.021 517.445C405.198 517.445 522.111 517.606 522.111 517.768Z" fill="#263238"/>
<path d="M417.652 452.553C423.278 448.51 429.008 444.409 435.524 442.041C442.039 439.672 449.572 439.21 455.741 442.387C460.905 445.044 464.625 450.012 466.762 455.418C469.399 462.132 469.844 469.508 468.033 476.491C467.051 480.257 465.099 484.15 461.517 485.675C457.936 487.2 453.812 485.883 450.253 484.289C438.576 479.042 428.461 470.854 420.898 460.525C421.659 459.917 422.582 459.547 423.551 459.461C424.521 459.375 425.495 459.576 426.351 460.04C428.043 460.994 429.581 462.197 430.914 463.609C435.432 467.702 440.881 470.629 446.788 472.135C451.155 473.29 457.035 472.771 458.502 468.508C459.461 465.723 457.936 462.731 456.457 460.201C454.771 457.278 452.841 454.148 449.676 452.981C447.296 452.114 444.673 452.53 442.178 452.981L414.937 457.66L416.624 457.163" fill="#455A64"/>
<path d="M349.641 85.1326C331.677 80.1188 305.06 87.0966 294.893 102.727C284.727 118.358 289.209 141.556 288.412 160.179C287.615 178.802 288.412 197.725 283.895 215.828C281.053 227.38 275.612 238.933 265.607 245.345C254.17 252.623 237.026 253.339 231.608 265.77C227.091 276.167 234.103 288.875 229.54 299.273C227.53 303.894 223.452 307.36 221.696 312.038C219.27 318.531 221.927 326.086 226.698 331.112C231.469 336.137 237.996 339.083 244.501 341.509C264.316 348.767 285.377 352.007 306.457 351.04C321.788 350.324 338.239 346.696 348.29 335.109C356.18 326.006 358.779 313.529 360.212 301.606C369.015 227.866 370.609 146.801 349.641 85.2481" fill="#263238"/>
<path d="M249.468 308.908C249.618 308.827 248.798 307.44 247.978 304.679C246.905 300.775 246.676 296.687 247.308 292.688C248.265 286.758 250.479 281.102 253.8 276.098C257.486 270.414 262.823 265.077 268.68 259.82C274.537 254.564 280.372 249.7 285.073 244.629C289.314 240.191 292.844 235.125 295.54 229.61C297.341 225.876 298.46 221.85 298.844 217.722C298.925 216.603 298.925 215.48 298.844 214.361C298.844 213.587 298.752 213.205 298.694 213.205C298.347 213.113 299.272 219.906 294.628 229.194C291.86 234.532 288.322 239.433 284.126 243.739C279.505 248.695 273.648 253.49 267.744 258.758C261.841 264.026 256.458 269.49 252.726 275.382C249.35 280.557 247.164 286.416 246.326 292.538C245.771 296.666 246.166 300.866 247.481 304.818C247.849 305.882 248.313 306.911 248.867 307.891C249.018 308.257 249.22 308.599 249.468 308.908Z" fill="#455A64"/>
<path d="M294.651 440.978L288.643 516.474L469.13 517.364L420.066 448.371L294.651 440.978Z" fill="#263238"/>
<path d="M151.964 259.393C152.472 259.832 141.393 318.947 135.79 348.545C134.854 353.496 135.326 358.611 137.152 363.308C138.977 368.005 142.084 372.096 146.118 375.116C150.286 378.233 155.269 380.075 160.462 380.419C165.656 380.764 170.837 379.596 175.381 377.057L250.531 337.951L227.518 289.765L180.152 316.648L183.271 266.521L151.964 259.393Z" fill="#FFBE9D"/>
<path d="M177.622 212.385C177.091 210.271 174.422 209.312 172.296 209.844C170.223 210.57 168.376 211.824 166.936 213.483L160.859 217.168C159.713 217.929 158.768 218.958 158.108 220.166C157.448 221.373 157.092 222.723 157.07 224.1C157.04 226.846 157.465 229.579 158.329 232.186C158.965 234.497 159.866 237.119 162.095 237.963C164.579 238.887 167.329 236.969 168.496 234.589C169.662 232.21 169.778 229.495 170.39 226.918C171.128 223.828 172.589 220.958 174.653 218.543C176.19 216.729 178.211 214.696 177.622 212.385Z" fill="#EB996E"/>
<path d="M127.137 214.765C126.949 214.176 126.909 213.549 127.021 212.941C127.132 212.333 127.392 211.761 127.777 211.277C128.162 210.793 128.66 210.411 129.227 210.165C129.795 209.919 130.414 209.817 131.03 209.867C143.369 210.883 172.678 214.985 190.064 219.987C214.718 227.08 230.949 231.667 230.949 231.667L283.306 230.511C283.306 230.511 277.021 248.557 257.07 248.649C241.97 248.718 226.132 239.014 226.132 239.014C226.132 239.014 159.034 216.163 130.857 217.399C130.034 217.435 129.222 217.198 128.549 216.723C127.876 216.248 127.379 215.564 127.137 214.777V214.765Z" fill="#455A64"/>
<path d="M273.521 230.661C274.168 232.498 272.031 234.127 270.124 234.474C268.218 234.82 266.035 234.728 264.66 236.091C264.172 236.677 263.817 237.361 263.617 238.097C263.418 238.832 263.38 239.602 263.505 240.354C263.777 241.851 263.959 243.364 264.048 244.883C264.077 245.915 263.719 246.921 263.043 247.702C261.668 249.1 259.138 248.626 257.809 247.193C256.592 245.636 255.93 243.717 255.926 241.74C255.909 240.341 255.703 238.949 255.314 237.605C255.109 236.932 254.727 236.327 254.209 235.851C253.691 235.376 253.055 235.048 252.368 234.901C250.716 234.693 249.26 235.941 247.678 236.496C246.848 236.73 245.977 236.783 245.126 236.649C244.274 236.516 243.461 236.199 242.743 235.722C242.025 235.244 241.419 234.617 240.967 233.883C240.514 233.149 240.226 232.326 240.122 231.47L273.521 230.661Z" fill="#FF725E"/>
<path d="M146.003 211.888C145.181 212.345 144.333 212.75 143.461 213.101C139.235 214.818 134.66 215.499 130.118 215.088C129.181 215.012 128.251 214.873 127.333 214.673C127.333 214.673 127.599 214.673 128.073 214.777C128.546 214.881 129.228 214.927 130.118 214.996C132.376 215.178 134.647 215.1 136.887 214.765C139.125 214.428 141.318 213.843 143.426 213.021C144.235 212.697 144.882 212.42 145.321 212.2L146.003 211.888Z" fill="#263238"/>
<path d="M168.969 215.204H168.75L168.126 215.135C167.583 215.065 166.797 214.996 165.815 214.938C163.275 214.786 160.725 214.918 158.214 215.331C155.704 215.759 153.249 216.456 150.889 217.411C149.988 217.792 149.26 218.115 148.775 218.358L148.209 218.624L148.001 218.704C148.001 218.704 148.059 218.704 148.186 218.577L148.729 218.265C149.214 218 149.884 217.653 150.832 217.26C153.185 216.247 155.652 215.522 158.179 215.1C160.706 214.685 163.273 214.572 165.827 214.765C166.809 214.846 167.594 214.95 168.137 215.042L168.761 215.158L168.969 215.204Z" fill="#263238"/>
<path d="M186.136 223.903L183.722 223.187L180.903 222.332C180.292 222.195 179.737 221.877 179.309 221.419C179.202 221.282 179.13 221.121 179.1 220.95C179.07 220.779 179.082 220.603 179.136 220.437C179.198 220.265 179.301 220.11 179.436 219.986C179.571 219.861 179.733 219.77 179.91 219.721C180.663 219.492 181.467 219.492 182.22 219.721C182.994 219.871 183.803 220.045 184.623 220.276C186.371 220.767 188.069 221.421 189.695 222.228C190.55 222.655 191.416 223.129 192.259 223.661C192.707 223.901 193.101 224.231 193.415 224.631C193.495 224.743 193.546 224.875 193.562 225.012C193.578 225.149 193.559 225.288 193.507 225.417C193.385 225.66 193.18 225.852 192.929 225.96C190.904 226.74 188.711 226.983 186.564 226.664C182.116 226.098 178.362 223.961 175.011 222.205C172.093 220.476 168.925 219.21 165.619 218.45C163.379 217.979 161.058 218.066 158.861 218.704C158.267 218.892 157.691 219.131 157.139 219.421C156.77 219.629 156.573 219.721 156.573 219.721L157.047 219.386C157.593 219.087 158.165 218.839 158.757 218.647C160.966 217.986 163.304 217.887 165.561 218.358C168.877 219.108 172.057 220.366 174.988 222.089C178.35 223.845 182.105 225.971 186.541 226.537C188.664 226.849 190.832 226.611 192.837 225.844C193.069 225.754 193.258 225.581 193.368 225.359C193.409 225.247 193.423 225.127 193.409 225.008C193.395 224.89 193.353 224.777 193.288 224.677C192.97 224.293 192.577 223.978 192.132 223.753C191.308 223.229 190.456 222.751 189.579 222.32C187.957 221.514 186.263 220.86 184.519 220.368C183.71 220.137 182.902 219.952 182.128 219.79C181.407 219.582 180.642 219.582 179.921 219.79C179.758 219.841 179.608 219.928 179.482 220.044C179.356 220.159 179.257 220.302 179.193 220.46C179.141 220.613 179.128 220.776 179.154 220.936C179.18 221.095 179.245 221.245 179.344 221.373C179.762 221.823 180.305 222.136 180.903 222.274L183.722 223.141L186.136 223.903Z" fill="#263238"/>
<path d="M198.313 222.852C198.521 223.208 198.662 223.6 198.729 224.007C198.917 224.951 198.8 225.93 198.394 226.803C197.966 227.665 197.279 228.372 196.43 228.825C196.071 229.019 195.679 229.144 195.275 229.194C195.641 229.074 195.996 228.923 196.337 228.744C197.174 228.3 197.847 227.602 198.261 226.751C198.674 225.899 198.806 224.938 198.636 224.007C198.56 223.614 198.451 223.228 198.313 222.852Z" fill="#263238"/>
<path d="M219.57 228.409C219.57 228.409 218.415 228.409 216.612 228.293C214.81 228.178 212.269 227.912 209.473 227.877C207.108 227.792 204.75 228.185 202.541 229.033C202.142 229.177 201.756 229.355 201.386 229.564C201.107 229.697 200.844 229.859 200.6 230.049L199.942 230.488L200.566 230.015C200.807 229.815 201.071 229.644 201.351 229.506C201.72 229.289 202.107 229.104 202.507 228.952C204.742 228.082 207.134 227.689 209.531 227.796C212.338 227.796 214.845 228.131 216.67 228.259C217.583 228.328 218.322 228.386 218.831 228.409H219.57Z" fill="#263238"/>
<path d="M241.739 245.842C241.739 245.842 241.324 245.484 240.584 244.813C240.214 244.478 239.752 244.074 239.198 243.658C238.643 243.242 238.043 242.688 237.303 242.168C235.633 240.904 233.885 239.746 232.07 238.702C227.625 236.165 222.817 234.326 217.814 233.249C215.777 232.799 213.712 232.482 211.633 232.302C210.744 232.186 209.935 232.175 209.23 232.14C208.526 232.106 207.913 232.14 207.416 232.14C207.913 232.14 208.572 232.14 209.23 232.14C209.889 232.14 210.744 232.14 211.633 232.279C213.719 232.455 215.791 232.764 217.837 233.203C220.339 233.743 222.802 234.454 225.208 235.329C227.591 236.265 229.907 237.365 232.139 238.621C233.956 239.663 235.704 240.821 237.373 242.087C238.1 242.595 238.701 243.138 239.256 243.589C239.81 244.039 240.261 244.432 240.619 244.744C241.381 245.46 241.739 245.842 241.739 245.842Z" fill="#263238"/>
<path d="M256.885 246.234C256.518 246.434 256.131 246.592 255.73 246.708C254.656 247.034 253.534 247.171 252.414 247.112C250.751 247.008 249.123 246.584 247.62 245.865C245.795 244.96 244.114 243.792 242.629 242.399C241.023 240.943 239.625 239.441 238.331 238.101C237.199 236.88 236 235.723 234.739 234.636C233.889 233.913 232.985 233.257 232.035 232.672C231.7 232.475 231.434 232.313 231.25 232.221L230.984 232.094C232.362 232.759 233.648 233.602 234.808 234.601C236.071 235.674 237.277 236.812 238.424 238.009C239.729 239.349 241.127 240.851 242.721 242.295C244.197 243.684 245.866 244.852 247.677 245.761C249.168 246.481 250.785 246.905 252.437 247.008C253.547 247.083 254.662 246.961 255.73 246.65C256.022 246.569 256.308 246.464 256.585 246.338L256.885 246.234Z" fill="#263238"/>
<path d="M276.721 240.678H276.328C276.062 240.678 275.693 240.678 275.231 240.678C274.024 240.68 272.82 240.804 271.638 241.047C270.444 241.305 269.282 241.693 268.172 242.203C267.756 242.387 267.409 242.561 267.19 242.688C267.073 242.758 266.949 242.816 266.82 242.861C267.24 242.582 267.68 242.334 268.137 242.122C270.332 241.062 272.748 240.543 275.184 240.608C275.698 240.597 276.211 240.62 276.721 240.678Z" fill="#263238"/>
<path d="M132.555 245.299L132.001 234.497C131.939 233.333 132.26 232.181 132.913 231.216L132.983 231.112C134.844 228.351 137.269 226.016 140.099 224.261L163.378 209.832C163.721 209.618 164.111 209.492 164.514 209.463C164.917 209.434 165.321 209.504 165.691 209.667C166.061 209.83 166.386 210.08 166.637 210.397C166.888 210.714 167.058 211.087 167.132 211.484C167.421 213.39 166.578 217.734 164.891 219.467C161.899 222.19 158.622 224.584 155.118 226.606L178.465 222.078C179.009 223.569 179 225.206 178.438 226.69C177.876 228.175 176.799 229.408 175.404 230.165L185.004 228.131C185.004 228.131 188.147 232.602 183.849 235.548C179.551 238.494 171.915 241.047 171.915 241.047C171.915 241.047 183.826 246.073 183.549 250.081C183.271 254.09 183.11 266.937 183.11 266.937L151.109 264.626L132.555 245.299Z" fill="#FFBE9D"/>
<path d="M155.961 225.902L155.741 226.029L155.071 226.364C154.494 226.664 153.65 227.08 152.634 227.623C151.617 228.166 150.462 228.905 149.168 229.749C147.874 230.592 146.43 231.459 145.055 232.521C144.382 233.037 143.843 233.706 143.484 234.474C143.176 235.204 143.034 235.993 143.068 236.784C143.162 238.127 143.418 239.454 143.831 240.735C144.096 241.617 144.278 242.523 144.374 243.439C144.413 243.773 144.413 244.11 144.374 244.444C144.374 244.444 144.374 244.086 144.293 243.439C144.17 242.537 143.969 241.648 143.692 240.782C143.247 239.49 142.971 238.147 142.872 236.784C142.83 235.966 142.972 235.149 143.288 234.393C143.664 233.594 144.222 232.894 144.917 232.348C145.601 231.82 146.315 231.33 147.054 230.881L149.076 229.576C150.358 228.744 151.536 228.016 152.541 227.484C153.546 226.953 154.424 226.56 155.025 226.329L155.707 226.029L155.961 225.902Z" fill="#EB996E"/>
<path d="M158.133 250.151C158.133 250.151 158.029 250.035 157.844 249.793L157.047 248.764L155.776 247.147C155.197 246.438 154.705 245.662 154.309 244.837C153.872 243.704 153.778 242.468 154.039 241.283C154.3 240.097 154.904 239.015 155.776 238.171C156.842 237.24 158.057 236.494 159.369 235.964C160.686 235.34 162.072 234.74 163.505 234.15C168.417 232.187 173.463 230.577 178.604 229.333C180.568 228.836 182.174 228.49 183.283 228.259L184.554 228.004L185.004 227.923C184.861 227.974 184.714 228.017 184.565 228.051L183.295 228.351C182.197 228.617 180.603 228.986 178.673 229.506C173.566 230.802 168.55 232.431 163.655 234.381C162.234 234.971 160.848 235.537 159.531 236.184C158.239 236.706 157.041 237.435 155.984 238.344C155.139 239.157 154.55 240.199 154.292 241.343C154.033 242.487 154.115 243.681 154.528 244.779C154.909 245.6 155.382 246.375 155.938 247.089C156.4 247.702 156.816 248.245 157.186 248.73C157.555 249.215 157.775 249.539 157.948 249.793C158.121 250.047 158.133 250.151 158.133 250.151Z" fill="#EB996E"/>
<path d="M182.902 235.802C182.735 235.926 182.557 236.034 182.37 236.126L180.88 236.911C179.621 237.57 177.865 238.448 175.866 239.314C174.162 240.053 172.419 240.697 170.644 241.244C169.963 241.452 169.408 241.602 169.015 241.694C168.819 241.757 168.619 241.804 168.415 241.833C168.597 241.734 168.791 241.66 168.992 241.613L170.587 241.082C171.938 240.62 173.775 239.927 175.774 239.095C177.772 238.263 179.528 237.374 180.811 236.784L182.324 236.068C182.507 235.96 182.701 235.871 182.902 235.802Z" fill="#EB996E"/>
<path d="M251.582 184.278C251.582 184.278 251.189 184.809 250.67 185.883C249.954 187.412 249.591 189.082 249.607 190.77C249.621 193.276 250.507 195.698 252.114 197.621C253.11 198.711 254.163 199.748 255.268 200.729C256.479 201.794 257.438 203.116 258.075 204.599C258.604 206.142 258.555 207.825 257.936 209.335C257.365 210.72 256.585 212.009 255.626 213.159C254.748 214.314 253.812 215.25 252.969 216.174C252.183 217.034 251.464 217.954 250.82 218.924C250.096 219.824 249.58 220.872 249.306 221.994C249.033 223.116 249.009 224.284 249.237 225.417C249.237 225.417 249.237 225.255 249.122 224.954C249.014 224.501 248.967 224.034 248.983 223.568C249.095 221.862 249.684 220.221 250.681 218.832C251.321 217.85 252.035 216.919 252.818 216.047C253.662 215.1 254.586 214.13 255.452 213.021C256.387 211.885 257.146 210.615 257.705 209.254C258.308 207.781 258.353 206.138 257.832 204.633C257.214 203.182 256.274 201.89 255.083 200.856C253.981 199.864 252.932 198.815 251.94 197.713C250.302 195.754 249.414 193.277 249.434 190.724C249.434 189.013 249.829 187.324 250.589 185.791C250.862 185.251 251.196 184.743 251.582 184.278Z" fill="#263238"/>
<path d="M262.176 183.723C262.176 183.723 261.783 184.266 261.263 185.34C260.552 186.866 260.193 188.532 260.212 190.216C260.214 192.727 261.101 195.157 262.719 197.078C263.62 198.141 264.752 199.111 265.861 200.186C267.08 201.24 268.04 202.56 268.669 204.044C269.195 205.591 269.15 207.276 268.542 208.792C267.965 210.174 267.186 211.463 266.231 212.616C265.342 213.771 264.406 214.696 263.574 215.631C262.788 216.49 262.066 217.405 261.414 218.369C260.434 219.728 259.836 221.323 259.681 222.99C259.666 223.607 259.72 224.223 259.842 224.827C259.79 224.676 259.748 224.522 259.715 224.365C259.612 223.915 259.569 223.452 259.588 222.99C259.7 221.282 260.284 219.638 261.275 218.242C261.922 217.266 262.64 216.34 263.424 215.47C264.256 214.522 265.18 213.552 266.058 212.443C266.989 211.307 267.744 210.037 268.299 208.677C268.902 207.204 268.951 205.562 268.438 204.056C267.813 202.611 266.874 201.324 265.688 200.29C264.533 199.215 263.458 198.245 262.534 197.147C260.895 195.184 260.007 192.703 260.027 190.146C260.034 188.439 260.429 186.756 261.183 185.225C261.462 184.692 261.795 184.189 262.176 183.723Z" fill="#263238"/>
<path d="M179.182 353.951C179.112 353.951 179.447 345.206 179.933 334.427C180.418 323.649 180.857 314.915 180.915 314.927C180.972 314.938 180.649 323.66 180.175 334.439C179.702 345.218 179.24 353.951 179.182 353.951Z" fill="#EB996E"/>
<path d="M159.092 271.523C156.886 269.403 154.796 267.166 152.83 264.823C155.035 266.943 157.126 269.18 159.092 271.523Z" fill="#EB996E"/>
<path d="M293.957 438.505L284.554 517.364H415.826L393.957 461.276L424.052 454.136C424.052 454.136 422.03 448.487 420.089 448.36C418.149 448.233 293.957 438.505 293.957 438.505Z" fill="#455A64"/>
<path d="M226.559 287.755C226.559 287.755 277.472 254.783 290.861 250.289C299.098 247.528 323.833 247.089 323.833 247.089L277.472 326.318L251.12 339.141L226.559 287.755Z" fill="#D36D0E"/>
<path d="M481.769 343.161C466.219 305.615 441.058 263.194 433.606 255.927C426.155 248.661 380.464 242.792 380.464 242.792L320.552 249.296L272.516 315.146L293.553 417.838L292.837 419.201C291.264 422.23 290.541 425.629 290.745 429.036C290.948 432.443 292.07 435.731 293.992 438.552L420.101 448.418L420.263 351.179L481.769 343.161Z" fill="#D36D0E"/>
<path d="M402.853 398.198C402.673 398.493 402.468 398.771 402.241 399.03C401.802 399.55 401.212 400.358 400.334 401.34C397.933 404.084 395.326 406.641 392.536 408.988C383.302 416.799 372.349 422.312 360.574 425.075C348.799 427.838 336.537 427.773 324.792 424.885C321.247 424.021 317.771 422.893 314.394 421.511C313.239 421.038 312.292 420.576 311.668 420.356C311.347 420.223 311.038 420.065 310.743 419.882C311.078 419.98 311.407 420.099 311.725 420.241C312.361 420.483 313.262 420.911 314.475 421.338C327.389 426.352 341.408 427.824 355.081 425.602C368.755 423.38 381.586 417.545 392.247 408.699C395.051 406.393 397.691 403.896 400.149 401.225C401.051 400.301 401.663 399.515 402.137 399.018C402.355 398.728 402.594 398.454 402.853 398.198Z" fill="#263238"/>
<path d="M420.228 347.517C420.122 347.213 420.045 346.899 419.997 346.581L419.442 343.901C418.969 341.498 418.287 338.124 417.502 334C415.919 325.578 413.747 314.037 411.356 301.294C411.055 299.7 410.766 298.117 410.478 296.558C410.189 294.998 409.831 293.473 409.669 291.937C409.271 288.997 409.163 286.025 409.345 283.064C409.535 280.39 409.941 277.736 410.558 275.128C411.141 272.866 411.886 270.65 412.788 268.496C414.099 265.382 415.795 262.444 417.837 259.751C418.53 258.769 419.177 258.099 419.57 257.614C419.757 257.354 419.978 257.121 420.228 256.921C420.228 256.921 420.043 257.186 419.662 257.695C419.281 258.203 418.68 258.85 418.033 259.89C416.073 262.609 414.444 265.553 413.181 268.658C412.309 270.798 411.594 272.999 411.044 275.243C410.446 277.826 410.06 280.453 409.888 283.099C409.723 286.023 409.843 288.955 410.247 291.856C410.408 293.381 410.789 294.883 411.055 296.477C411.321 298.071 411.633 299.608 411.933 301.214C414.244 313.921 416.369 325.474 417.906 333.954C418.645 338.101 419.234 341.486 419.65 343.889L420.101 346.592C420.168 346.897 420.211 347.206 420.228 347.517Z" fill="#263238"/>
<path d="M278.708 345.31C278.516 344.762 278.373 344.197 278.28 343.623C278.049 342.41 277.738 340.839 277.356 339.002C276.605 335.074 275.6 329.622 274.526 323.603C273.451 317.584 272.516 312.119 271.869 308.168C271.568 306.262 271.314 304.702 271.129 303.478C271.018 302.906 270.953 302.327 270.933 301.745C271.127 302.293 271.27 302.857 271.36 303.432C271.592 304.587 271.903 306.204 272.285 308.053C273.036 311.992 274.041 317.445 275.115 323.464C276.189 329.483 277.125 334.936 277.772 338.898C278.073 340.793 278.327 342.364 278.512 343.589C278.622 344.156 278.688 344.732 278.708 345.31Z" fill="#263238"/>
<path d="M424.56 291.348C424.895 289.111 425.424 286.907 426.143 284.763C426.676 282.565 427.403 280.42 428.315 278.351C427.973 280.587 427.44 282.791 426.721 284.936C426.197 287.134 425.474 289.28 424.56 291.348Z" fill="#FAFAFA"/>
<path d="M431.319 314.522C429.543 313.725 427.855 312.745 426.282 311.599C424.6 310.603 423.021 309.442 421.568 308.134C425.026 309.919 428.293 312.052 431.319 314.499V314.522Z" fill="#FAFAFA"/>
<path d="M444.073 305.569C443.802 303.572 443.849 301.544 444.211 299.562C444.376 297.553 444.847 295.582 445.609 293.716C445.783 293.716 445.228 296.373 444.812 299.642C444.396 302.912 444.246 305.569 444.073 305.569Z" fill="#FAFAFA"/>
<path d="M446.626 327.981C445.836 326.231 445.157 324.433 444.593 322.598C443.828 320.832 443.168 319.023 442.617 317.179C443.718 318.779 444.571 320.535 445.147 322.39C445.911 324.171 446.409 326.055 446.626 327.981Z" fill="#FAFAFA"/>
<path d="M436.737 341.844C433.583 339.491 430.673 336.829 428.049 333.896C431.21 336.241 434.121 338.904 436.737 341.844Z" fill="#FAFAFA"/>
<path d="M467.016 325.671C467.143 325.798 465.33 327.808 463.551 330.604C461.771 333.399 460.593 335.86 460.431 335.791C460.946 333.802 461.832 331.928 463.042 330.269C464.073 328.505 465.421 326.946 467.016 325.671Z" fill="#FAFAFA"/>
<path d="M433.999 268.82C432.75 268.1 431.61 267.205 430.614 266.163C429.478 265.269 428.472 264.224 427.622 263.055C428.869 263.788 430.011 264.686 431.018 265.724C432.15 266.613 433.153 267.655 433.999 268.82Z" fill="#FAFAFA"/>
<path d="M396.753 269.721C393.974 271.818 390.967 273.593 387.788 275.012C389.111 273.881 390.561 272.908 392.109 272.112C393.56 271.14 395.119 270.338 396.753 269.721Z" fill="#FAFAFA"/>
<path d="M390.237 302.334C389.015 301.127 387.938 299.781 387.026 298.325C385.952 296.986 385.041 295.524 384.311 293.97C386.609 296.515 388.598 299.322 390.237 302.334Z" fill="#FAFAFA"/>
<path d="M404.343 312.963C403.017 316.509 400.876 319.695 398.093 322.263C397.966 322.135 399.56 320.206 401.27 317.641C402.98 315.077 404.181 312.87 404.343 312.963Z" fill="#FAFAFA"/>
<path d="M370.066 315.342C369.893 315.4 368.911 312.812 367.328 309.843C365.746 306.874 364.117 304.633 364.255 304.518C367.079 307.569 369.069 311.298 370.032 315.342H370.066Z" fill="#FAFAFA"/>
<path d="M377.217 337.524C377.858 335.635 378.686 333.816 379.69 332.094C380.506 330.274 381.509 328.543 382.682 326.93C382.042 328.82 381.218 330.642 380.221 332.371C379.397 334.186 378.39 335.912 377.217 337.524Z" fill="#FAFAFA"/>
<path d="M401.143 354.159C400.471 352.108 399.984 350.001 399.687 347.863C399.207 345.764 398.92 343.626 398.833 341.475C399.508 343.521 399.995 345.624 400.288 347.759C400.77 349.862 401.056 352.004 401.143 354.159Z" fill="#FAFAFA"/>
<path d="M357.693 341.971C356.214 340.781 354.821 339.488 353.523 338.101C352.084 336.857 350.725 335.522 349.456 334.104C351.115 335.066 352.625 336.265 353.939 337.662C355.386 338.915 356.65 340.366 357.693 341.971Z" fill="#FAFAFA"/>
<path d="M338.424 309.855C335.824 312.725 332.932 315.315 329.794 317.584C332.393 314.714 335.286 312.123 338.424 309.855Z" fill="#FAFAFA"/>
<path d="M330.845 300.497C329.563 299.078 328.432 297.53 327.472 295.876C326.349 294.314 325.39 292.642 324.607 290.885C327.018 293.878 329.109 297.115 330.845 300.544V300.497Z" fill="#FAFAFA"/>
<path d="M301.455 316.625C299.903 314.89 298.5 313.028 297.262 311.056C295.864 309.203 294.631 307.232 293.576 305.165C295.129 306.892 296.528 308.751 297.758 310.721C299.163 312.576 300.4 314.551 301.455 316.625Z" fill="#FAFAFA"/>
<path d="M310.154 335.906C310.154 336.079 306.365 336.137 301.709 336.38C297.054 336.622 293.287 336.923 293.264 336.75C294.055 336.497 294.874 336.342 295.702 336.287C297.227 336.091 299.341 335.895 301.675 335.779C304.008 335.664 306.134 335.652 307.67 335.687C308.504 335.652 309.339 335.726 310.154 335.906Z" fill="#FAFAFA"/>
<path d="M312.292 279.98C312.453 279.98 311.795 282.879 311.194 286.438C310.593 289.996 310.27 292.919 310.097 292.907C310.037 288.501 310.781 284.12 312.292 279.98Z" fill="#FAFAFA"/>
<path d="M300.589 263.032C301.891 260.964 303.359 259.005 304.979 257.175C306.443 255.216 308.066 253.38 309.831 251.687C308.529 253.756 307.061 255.714 305.441 257.545C303.977 259.504 302.354 261.339 300.589 263.032Z" fill="#FAFAFA"/>
<path d="M288.851 278.836C288.724 278.952 285.998 276.179 282.393 273.06C278.789 269.94 275.716 267.514 275.82 267.376C276.598 267.731 277.325 268.19 277.98 268.739C279.262 269.663 280.984 271.05 282.798 272.609C284.611 274.169 286.148 275.752 287.234 276.907C287.856 277.476 288.4 278.124 288.851 278.836Z" fill="#FAFAFA"/>
<path d="M269.316 284.335C269.396 284.497 265.965 286.334 262.165 289.222C258.364 292.11 255.66 294.906 255.522 294.779C255.978 294.05 256.534 293.389 257.174 292.815C258.612 291.344 260.157 289.981 261.795 288.737C263.438 287.493 265.172 286.373 266.982 285.386C267.706 284.926 268.492 284.572 269.316 284.335Z" fill="#FAFAFA"/>
<path d="M243.103 300.555C242.941 300.555 242.964 297.424 242.814 293.566C242.664 289.707 242.409 286.634 242.583 286.634C243.134 288.904 243.413 291.23 243.415 293.566C243.601 295.899 243.496 298.247 243.103 300.555Z" fill="#FAFAFA"/>
<path d="M262.43 317.653C258.711 314.994 255.231 312.013 252.033 308.746C253.944 309.995 255.742 311.41 257.405 312.974C259.221 314.375 260.903 315.941 262.43 317.653Z" fill="#FAFAFA"/>
<path d="M292.987 293.161C290.824 293.937 288.597 294.525 286.333 294.917C284.108 295.509 281.835 295.896 279.54 296.073C281.707 295.296 283.937 294.708 286.206 294.317C288.427 293.731 290.697 293.345 292.987 293.161Z" fill="#FAFAFA"/>
<path d="M352.911 301.086C351.877 300.431 350.956 299.611 350.184 298.66C349.262 297.844 348.481 296.879 347.874 295.807C348.906 296.47 349.827 297.292 350.6 298.245C351.52 299.06 352.3 300.02 352.911 301.086Z" fill="#FAFAFA"/>
<path d="M379.794 285.479C378.788 286.792 377.624 287.975 376.328 289.002C375.158 290.179 373.851 291.211 372.435 292.075C374.617 289.584 377.096 287.369 379.817 285.479H379.794Z" fill="#FAFAFA"/>
<path d="M402.784 291.844C402.622 291.844 403.292 289.187 403.939 285.918C404.586 282.648 404.794 279.957 404.967 279.968C405.135 281.997 404.987 284.039 404.528 286.022C404.248 288.041 403.66 290.004 402.784 291.844Z" fill="#FAFAFA"/>
<path d="M284.669 329.009C283.938 328.201 283.363 327.265 282.971 326.248C282.407 325.317 282.016 324.292 281.816 323.221C282.56 324.026 283.148 324.962 283.549 325.982C284.099 326.917 284.478 327.942 284.669 329.009Z" fill="#FAFAFA"/>
<path d="M326.062 330.627C325.324 329.436 324.752 328.149 324.364 326.803C323.787 325.522 323.397 324.163 323.209 322.771C323.949 323.959 324.517 325.247 324.896 326.595C325.48 327.874 325.873 329.233 326.062 330.627Z" fill="#FAFAFA"/>
<path d="M348.636 319.259C348.509 319.143 349.179 318.173 350.138 317.087C351.097 316.001 351.963 315.204 352.09 315.308C352.218 315.412 351.536 316.394 350.589 317.48C349.641 318.566 348.821 319.363 348.636 319.259Z" fill="#FAFAFA"/>
<path d="M302.252 391.613C301.09 390.013 300.214 388.222 299.664 386.322C298.934 384.482 298.543 382.525 298.509 380.546C298.683 380.546 299.214 383.087 300.265 386.126C301.317 389.164 302.414 391.521 302.252 391.613Z" fill="#FAFAFA"/>
<path d="M319.87 392.93C320.159 391.218 320.639 389.544 321.303 387.939C321.774 386.272 322.441 384.667 323.29 383.157C323.003 384.864 322.527 386.534 321.869 388.136C321.389 389.806 320.719 391.414 319.87 392.93Z" fill="#FAFAFA"/>
<path d="M314.729 412.951C313.619 411.488 312.673 409.908 311.91 408.237C310.961 406.655 310.186 404.974 309.6 403.224C310.704 404.692 311.645 406.276 312.407 407.949C313.353 409.531 314.132 411.207 314.729 412.951Z" fill="#FAFAFA"/>
<path d="M347.365 407.198C345.369 406.892 343.425 406.308 341.589 405.465C339.689 404.808 337.895 403.878 336.263 402.704C338.156 403.333 340.011 404.07 341.82 404.91C343.714 405.558 345.566 406.322 347.365 407.198Z" fill="#FAFAFA"/>
<path d="M336.806 395.322C336.725 395.171 338.77 393.843 341.081 391.948C343.391 390.054 345.124 388.332 345.251 388.482C343.057 391.442 340.153 393.802 336.806 395.345V395.322Z" fill="#FAFAFA"/>
<path d="M364.001 403.767C363.897 403.905 361.795 402.611 359.034 401.271C356.272 399.931 353.916 399.18 353.962 399.018C357.674 399.672 361.141 401.312 364.001 403.767Z" fill="#FAFAFA"/>
<path d="M369.801 414.626C369.685 414.499 371.268 412.882 373.012 410.698C374.757 408.515 375.981 406.62 376.132 406.712C375.524 408.32 374.623 409.801 373.474 411.079C372.484 412.482 371.237 413.685 369.801 414.626Z" fill="#FAFAFA"/>
<path d="M310.478 435.606C308.556 434.688 306.727 433.589 305.013 432.325C303.182 431.233 301.461 429.968 299.872 428.547C301.794 429.465 303.624 430.563 305.337 431.828C307.168 432.919 308.889 434.184 310.478 435.606Z" fill="#FAFAFA"/>
<path d="M332.578 430.153C332.647 430.315 330.267 431.366 327.576 433.122C324.884 434.878 322.955 436.588 322.828 436.495C325.393 433.479 328.781 431.275 332.578 430.153Z" fill="#FAFAFA"/>
<path d="M352.345 438.887C351.369 437.913 350.533 436.809 349.861 435.606C349.027 434.509 348.361 433.294 347.885 432.001C349.705 434.08 351.207 436.415 352.345 438.933V438.887Z" fill="#FAFAFA"/>
<path d="M376.166 431.019C376.236 431.181 373.994 432.244 371.453 433.896C368.911 435.548 367.005 437.131 366.832 437.004C368.014 435.547 369.455 434.321 371.083 433.388C372.612 432.283 374.337 431.479 376.166 431.019Z" fill="#FAFAFA"/>
<path d="M387.176 420.68C387.014 420.76 386.333 419.524 385.039 418.519C383.745 417.514 382.462 417.006 382.509 416.844C383.594 416.829 384.641 417.244 385.42 417.999C386.337 418.625 386.968 419.589 387.176 420.68Z" fill="#FAFAFA"/>
<path d="M399.653 432.579C398.442 433.537 397.115 434.337 395.702 434.959C394.374 435.747 392.954 436.368 391.474 436.807C392.679 435.842 394.008 435.042 395.425 434.427C396.747 433.629 398.168 433.007 399.653 432.579Z" fill="#FAFAFA"/>
<path d="M410.894 438.887C410.72 438.887 411.356 436.241 411.772 432.983C412.187 429.725 412.234 427.034 412.418 427.034C412.736 429.029 412.716 431.064 412.361 433.053C412.206 435.066 411.71 437.039 410.894 438.887Z" fill="#FAFAFA"/>
<path d="M409.114 418.831C409.01 418.981 406.677 417.399 403.477 416.139C400.277 414.88 397.504 414.43 397.527 414.245C399.654 414.258 401.755 414.714 403.696 415.585C405.713 416.269 407.56 417.376 409.114 418.831Z" fill="#FAFAFA"/>
<path d="M384.068 358.353C380.605 356.579 377.334 354.454 374.306 352.011C377.765 353.791 381.036 355.916 384.068 358.353Z" fill="#FAFAFA"/>
<g opacity="0.3">
<path d="M325.473 425.139C325.104 424.418 324.991 423.593 325.153 422.8C325.314 422.006 325.741 421.291 326.363 420.772C327.644 419.77 329.19 419.164 330.81 419.028C339.082 417.734 347.943 419.975 355.695 416.821C360.894 414.695 364.937 410.363 367.987 405.673C371.037 400.982 373.451 395.853 376.467 391.116C379.17 386.853 382.624 382.787 387.338 380.962C392.051 379.136 398.186 380.303 400.739 384.658C403.292 389.014 401.582 394.363 399.191 398.66C392.432 410.791 380.256 419.374 366.982 423.464C353.708 427.553 339.417 427.449 325.716 425.023" fill="black"/>
</g>
<path d="M489.29 389.407L476.397 343.404L423.324 350.266L429.54 374.665L350.161 353.489L332.647 376.733L453.142 433.63C458.665 435.985 464.775 436.598 470.656 435.388C476.537 434.179 481.909 431.204 486.055 426.86C493.449 419.051 492.559 399.677 489.29 389.407Z" fill="#FFBE9D"/>
<path d="M269.916 345.31C268.137 344.836 265.988 344.455 264.671 345.726C264.151 346.339 263.845 347.105 263.799 347.907C263.753 348.71 263.97 349.506 264.417 350.174C265.238 351.548 265.861 351.745 268.033 352.484L289.163 357.279L297.25 350.948L269.916 345.31Z" fill="#EB996E"/>
<path d="M335.871 377.842C310.05 371.523 286.09 363.17 260.582 358.318C259.311 358.076 257.878 357.741 257.208 356.62C256.296 355.095 257.474 353.027 259.103 352.334C260.804 351.808 262.616 351.748 264.348 352.161C277.997 354.059 291.871 353.59 305.36 350.774C314.105 348.938 322.689 346.153 331.515 344.998C340.341 343.843 342.721 348.464 350.161 353.432" fill="#FFBE9D"/>
<path d="M350.161 353.489C348.013 349.721 344.889 346.602 341.118 344.459C337.347 342.316 333.068 341.229 328.731 341.313C323.451 341.486 318.403 343.404 313.308 344.779C308.213 346.153 302.645 347.008 297.724 345.067C295.841 344.328 294.085 343.184 292.074 342.907C290.064 342.63 287.661 343.612 287.303 345.599C287.026 347.101 287.996 348.533 289.048 349.654C292.744 353.559 304.517 357.902 313.793 357.44" fill="#FFBE9D"/>
<path d="M313.793 357.452C313.793 357.359 312.372 357.452 309.854 357.198C306.312 356.824 302.823 356.049 299.457 354.887C297.118 354.111 294.861 353.105 292.721 351.884C291.54 351.231 290.452 350.423 289.487 349.481C288.972 349.042 288.551 348.503 288.249 347.898C287.947 347.292 287.771 346.632 287.731 345.957C287.854 345.283 288.196 344.668 288.703 344.207C289.211 343.745 289.855 343.463 290.538 343.404C292.058 343.228 293.596 343.54 294.928 344.293C296.434 345.075 298.018 345.698 299.653 346.153C301.362 346.561 303.119 346.732 304.875 346.662C312.026 346.419 318.183 343.45 324.029 342.329C326.776 341.707 329.608 341.559 332.405 341.89C334.836 342.215 337.204 342.904 339.429 343.935C342.669 345.44 345.546 347.627 347.862 350.347C349.48 352.288 350.173 353.547 350.173 353.501C350.067 353.173 349.915 352.862 349.722 352.577C349.252 351.711 348.703 350.891 348.082 350.128C345.832 347.254 342.95 344.937 339.66 343.358C337.386 342.253 334.954 341.509 332.451 341.151C329.575 340.774 326.656 340.895 323.821 341.509C317.837 342.664 311.691 345.53 304.805 345.761C303.128 345.822 301.449 345.659 299.815 345.275C298.236 344.836 296.707 344.236 295.251 343.485C293.749 342.667 292.027 342.344 290.33 342.56C289.48 342.705 288.683 343.072 288.019 343.623C287.683 343.912 287.408 344.266 287.209 344.662C287.011 345.059 286.894 345.491 286.864 345.934C286.898 346.727 287.095 347.505 287.443 348.218C287.791 348.932 288.282 349.566 288.886 350.081C289.919 351.07 291.086 351.91 292.352 352.577C294.555 353.801 296.877 354.796 299.283 355.546C302.727 356.671 306.297 357.366 309.912 357.614C310.893 357.673 311.877 357.673 312.858 357.614C313.175 357.598 313.489 357.543 313.793 357.452Z" fill="#EB996E"/>
<path d="M453.176 382.001C453.176 382.001 453.084 382.001 452.911 381.92L452.16 381.655L449.433 380.661C447.123 379.829 443.911 378.732 440.341 377.611C436.771 376.491 433.502 375.566 431.099 374.943L428.292 374.215L427.518 374.018C427.344 374.018 427.252 373.938 427.264 373.926H427.529L428.315 374.076C428.985 374.215 429.955 374.434 431.145 374.723C433.537 375.324 436.806 376.213 440.387 377.334C443.969 378.455 447.169 379.587 449.468 380.453C450.623 380.892 451.536 381.262 452.171 381.528L452.899 381.84L453.176 382.001Z" fill="#EB996E"/>
<path d="M353.442 287.119C360.717 286.807 367.591 283.696 372.628 278.438C377.665 273.179 380.476 266.178 380.475 258.896V225.393L382.324 118.347L379.932 112.316L323.555 94.5249C306.226 93.1733 294.581 117.006 293.969 134.382C293.287 153.698 293.218 177.3 295.898 191.613C301.282 220.403 323.555 223.476 323.555 223.476L323.994 259.289C324.047 263.066 324.856 266.795 326.375 270.254C327.894 273.713 330.091 276.833 332.837 279.428C335.582 282.023 338.821 284.04 342.36 285.361C345.899 286.683 349.668 287.28 353.442 287.119Z" fill="#FFBE9D"/>
<path d="M301.455 153.155C301.473 154.123 301.868 155.047 302.556 155.728C303.245 156.41 304.172 156.796 305.14 156.805C305.614 156.827 306.087 156.754 306.532 156.591C306.977 156.428 307.386 156.178 307.733 155.855C308.08 155.532 308.36 155.144 308.556 154.712C308.751 154.28 308.859 153.813 308.872 153.34C308.851 152.373 308.455 151.453 307.767 150.773C307.079 150.094 306.153 149.709 305.187 149.7C304.713 149.676 304.24 149.746 303.794 149.907C303.348 150.068 302.939 150.317 302.591 150.639C302.244 150.962 301.964 151.35 301.769 151.782C301.573 152.214 301.467 152.681 301.455 153.155Z" fill="#263238"/>
<path d="M299.41 146.327C299.884 146.801 302.645 144.64 306.631 144.536C310.616 144.432 313.562 146.35 314.024 145.853C314.232 145.634 313.736 144.767 312.43 143.878C310.674 142.726 308.603 142.149 306.504 142.226C304.412 142.265 302.387 142.973 300.727 144.248C299.572 145.23 299.145 146.119 299.41 146.327Z" fill="#263238"/>
<path d="M340.145 153.155C340.163 154.121 340.556 155.043 341.242 155.724C341.928 156.406 342.852 156.793 343.819 156.805C344.293 156.83 344.768 156.759 345.214 156.597C345.661 156.435 346.07 156.185 346.418 155.862C346.766 155.539 347.046 155.149 347.24 154.716C347.435 154.282 347.54 153.814 347.55 153.34C347.535 152.373 347.142 151.451 346.456 150.771C345.769 150.091 344.843 149.706 343.877 149.7C343.403 149.676 342.93 149.746 342.484 149.907C342.038 150.068 341.629 150.317 341.281 150.639C340.933 150.962 340.654 151.35 340.458 151.782C340.263 152.214 340.157 152.681 340.145 153.155Z" fill="#263238"/>
<path d="M338.666 145.992C339.14 146.454 341.901 144.305 345.887 144.201C349.872 144.097 352.818 146.015 353.28 145.518C353.477 145.299 352.992 144.432 351.686 143.543C349.929 142.393 347.858 141.815 345.76 141.891C343.668 141.93 341.643 142.638 339.983 143.913C338.828 144.895 338.424 145.773 338.666 145.992Z" fill="#263238"/>
<path d="M324.999 175.983C324.999 175.763 322.516 175.394 318.484 174.989C317.467 174.92 316.497 174.747 316.3 174.053C316.183 173.003 316.393 171.942 316.901 171.015C317.791 168.52 318.715 165.909 319.697 163.171C323.578 151.999 326.363 142.838 325.912 142.676C325.462 142.515 321.938 151.456 318.068 162.616L315.388 170.507C315.041 171.662 314.406 173.002 314.972 174.516C315.128 174.873 315.365 175.189 315.663 175.439C315.962 175.69 316.314 175.868 316.693 175.96C317.259 176.102 317.842 176.168 318.426 176.156C322.481 176.26 324.988 176.214 324.999 175.983Z" fill="#263238"/>
<path d="M323.544 223.291C337.168 223.121 350.478 219.174 361.991 211.888C361.991 211.888 353.142 232.013 324.121 230.107L323.544 223.291Z" fill="#EB996E"/>
<path d="M337.199 130.431C337.627 131.505 341.601 130.881 346.291 131.32C350.981 131.759 354.817 132.926 355.418 131.932C355.672 131.459 354.99 130.454 353.431 129.449C351.359 128.216 349.034 127.472 346.632 127.271C344.23 127.071 341.814 127.421 339.567 128.293C337.858 128.986 337.026 129.864 337.199 130.431Z" fill="#263238"/>
<path d="M300.566 134.728C301.293 135.618 304.031 134.601 307.324 134.462C310.616 134.324 313.447 134.913 314.059 133.943C314.325 133.469 313.863 132.579 312.615 131.759C310.957 130.741 309.021 130.272 307.081 130.419C305.141 130.509 303.276 131.199 301.744 132.395C300.6 133.353 300.3 134.301 300.566 134.728Z" fill="#263238"/>
<path d="M313.609 96.5004C314.949 105.552 318.536 114.124 324.041 121.433C329.546 128.743 336.794 134.557 345.124 138.344C344.624 136.034 344.131 133.723 343.645 131.413C350.785 143.219 365.942 153.108 375.693 157.106C378.708 158.342 382.566 157.233 385.304 155.477C389.14 153.028 389.371 147.529 388.562 143.046C386.055 129.021 377.737 116.475 366.901 107.233C356.065 97.9907 342.848 91.8216 329.182 87.6857C325.566 86.5882 323.59 85.8373 320.009 87.0503C316.427 88.2634 311.737 92.3415 313.47 95.6917" fill="#263238"/>
<path d="M371.118 135.86C379.389 165.493 368.449 198.43 371.268 229.067C371.892 235.895 374.376 243.797 380.129 247.551C382.971 249.4 383.595 248.233 386.864 248.88C395.217 250.497 403.107 246.997 411.448 248.614C418.98 250.081 430.96 254.391 435.709 248.349C440.457 242.307 434.981 235.202 430.337 229.287C425.692 223.372 419.454 218.312 417.167 211.137C414.694 203.432 417.363 195.16 418.518 187.143C422.469 159.774 412.742 132.048 396.568 109.601C390.93 101.78 382.428 94.3747 374.78 88.4944C367.132 82.6141 349.838 77.658 340.203 78.097C330.568 78.536 314.521 86.1839 310.593 96.9856" fill="#263238"/>
<path d="M339.128 118.947C339.071 119.051 339.706 119.479 340.931 120.183L343.114 121.454L341.254 119.675C336.727 115.46 332.86 110.588 329.782 105.223C324.006 95.2758 323.128 85.7449 322.666 85.8604C322.516 85.8604 322.516 88.2403 323.278 91.9949C324.31 96.8631 326.095 101.54 328.569 105.858C331.644 111.397 335.829 116.242 340.861 120.091L341.196 119.583C339.891 119.097 339.175 118.878 339.128 118.947Z" fill="#455A64"/>
<path d="M391.566 242.237C391.621 241.603 391.621 240.965 391.566 240.331C391.566 239.083 391.566 237.246 391.624 234.878C392.007 228.211 392.99 221.592 394.558 215.1C396.337 206.828 399.283 197.136 401.051 185.976C401.967 180.128 402.25 174.198 401.894 168.289C401.584 161.871 399.976 155.583 397.169 149.804C394.247 144.07 389.968 139.136 384.704 135.433C379.736 131.748 374.549 128.906 369.812 125.948C361.379 120.761 353.619 114.552 346.707 107.464C342.072 102.665 337.823 97.5082 333.999 92.0411C332.647 90.1002 331.619 88.5753 330.937 87.524C330.609 86.9682 330.221 86.4492 329.782 85.9759C330.024 86.5669 330.318 87.1353 330.66 87.6742C331.249 88.8294 332.22 90.3544 333.502 92.2952C337.191 97.9171 341.371 103.202 345.991 108.088C352.852 115.357 360.617 121.716 369.096 127.011C373.856 130.015 379.008 132.88 383.849 136.496C388.925 140.074 393.056 144.831 395.887 150.359C398.605 155.96 400.176 162.048 400.508 168.266C400.869 174.079 400.617 179.915 399.757 185.675C398.082 196.697 395.228 206.47 393.564 214.777C392.068 221.335 391.228 228.026 391.058 234.751C391.028 236.579 391.097 238.407 391.265 240.227C391.286 240.907 391.386 241.581 391.566 242.237Z" fill="#455A64"/>
<path d="M293.946 110.271C292.918 117.744 292.316 125.269 292.144 132.81C297.989 128.097 303.893 123.279 308.317 117.191C312.742 111.103 315.503 103.49 314.348 96.0614C310.115 97.3065 306.284 99.6449 303.242 102.841C300.2 106.037 298.053 109.979 297.019 114.268" fill="#263238"/>
<path d="M323.74 189.522C324.734 187.582 324.999 187.085 326.686 186.161C327.965 185.838 329.285 185.705 330.603 185.768C331.885 185.837 332.74 187.108 333.213 188.298C333.988 190.018 334.099 191.965 333.525 193.762C332.855 195.507 326.802 197.598 323.544 193.011" fill="#EB996E"/>
<path d="M328.719 196.05C329.05 196.028 329.382 196.028 329.713 196.05C330.59 196.008 331.434 195.706 332.139 195.183C333.098 194.312 333.716 193.129 333.883 191.845C334.019 191.081 333.959 190.295 333.711 189.56C333.463 188.825 333.033 188.165 332.462 187.639C331.213 186.659 329.66 186.148 328.072 186.195C327.434 186.22 326.809 186.38 326.237 186.665C325.665 186.95 325.161 187.353 324.757 187.847C324.219 188.545 323.865 189.368 323.729 190.239C323.704 190.572 323.642 190.901 323.544 191.221C323.449 190.89 323.429 190.543 323.486 190.204C323.55 189.264 323.874 188.36 324.422 187.593C324.817 187.067 325.311 186.623 325.877 186.288C326.539 185.901 327.284 185.679 328.049 185.641C328.877 185.609 329.705 185.714 330.499 185.953C331.351 186.188 332.14 186.61 332.809 187.189C333.512 187.796 334.015 188.602 334.253 189.499C334.49 190.306 334.534 191.157 334.38 191.983C334.236 192.714 333.983 193.419 333.629 194.074C333.263 194.796 332.691 195.394 331.986 195.793C331.281 196.192 330.475 196.373 329.667 196.315C329.334 196.305 329.009 196.214 328.719 196.05Z" fill="#263238"/>
<path d="M342.456 166.579C342.559 166.706 342.178 167.145 341.508 167.226C340.838 167.307 340.353 166.949 340.445 166.81C340.538 166.671 340.954 166.683 341.439 166.625C341.924 166.567 342.352 166.44 342.456 166.579Z" fill="#EB996E"/>
<path d="M348.821 166.244C348.659 166.244 348.44 165.932 348.347 165.481C348.255 165.031 348.29 164.626 348.451 164.592C348.613 164.557 348.833 164.892 348.937 165.354C349.041 165.816 349.029 166.244 348.821 166.244Z" fill="#EB996E"/>
<path d="M356.55 163.679C356.55 163.841 356.111 163.887 355.66 163.795C355.21 163.702 354.863 163.471 354.898 163.309C354.932 163.148 355.337 163.102 355.787 163.205C356.238 163.309 356.584 163.517 356.55 163.679Z" fill="#EB996E"/>
<path d="M345.76 173.002C345.598 173.002 345.459 172.632 345.459 172.182C345.459 171.731 345.598 171.362 345.76 171.362C345.921 171.362 346.06 171.72 346.06 172.182C346.06 172.644 345.921 173.002 345.76 173.002Z" fill="#EB996E"/>
<path d="M352.703 169.894C352.541 169.894 352.402 169.814 352.402 169.71C352.402 169.606 352.541 169.525 352.703 169.525C352.864 169.525 353.003 169.606 353.003 169.71C353.003 169.814 352.876 169.894 352.703 169.894Z" fill="#EB996E"/>
<path d="M302.98 167.699C302.98 167.861 302.402 167.977 301.825 167.699C301.247 167.422 300.889 166.902 301.016 166.798C301.143 166.694 301.559 166.925 302.067 167.156C302.576 167.388 302.992 167.526 302.98 167.699Z" fill="#EB996E"/>
<path d="M308.144 166.614C308.059 166.582 307.989 166.519 307.95 166.437C307.911 166.354 307.906 166.26 307.936 166.175C307.994 165.978 308.156 165.839 308.317 165.886C308.403 165.917 308.472 165.981 308.511 166.063C308.55 166.145 308.555 166.239 308.525 166.325C308.52 166.369 308.505 166.411 308.483 166.45C308.461 166.489 308.431 166.522 308.395 166.549C308.36 166.576 308.319 166.596 308.276 166.607C308.233 166.618 308.188 166.62 308.144 166.614Z" fill="#EB996E"/>
<path d="M305.383 174.1C305.221 174.1 305.048 173.845 305.002 173.499C304.956 173.152 305.002 172.84 305.21 172.817C305.418 172.794 305.545 173.06 305.603 173.418C305.66 173.776 305.556 174.077 305.383 174.1Z" fill="#EB996E"/>
<path d="M298.59 173.73C298.451 173.638 298.509 173.326 298.706 173.014C298.902 172.702 299.191 172.54 299.329 172.632C299.468 172.725 299.41 173.048 299.214 173.349C299.018 173.649 298.729 173.822 298.59 173.73Z" fill="#EB996E"/>
<path d="M272.689 432.313V485.917C272.688 490.419 271.613 494.855 269.554 498.857C267.494 502.86 264.51 506.313 260.848 508.93C256.053 512.35 250.309 514.188 244.42 514.187H172.793C167.43 514.191 162.177 512.668 157.648 509.797L155.175 508.203C151.156 505.657 147.844 502.138 145.546 497.972C143.248 493.806 142.038 489.127 142.028 484.369V432.313H272.689Z" fill="#263238"/>
<path d="M142.028 445.217H105.718V451.525L126.686 454.748C129.754 455.176 132.663 456.373 135.144 458.227C137.624 460.081 139.595 462.533 140.873 465.354C141.608 466.994 142.001 468.767 142.028 470.564C142.028 470.564 149.422 470.448 150.681 461.611C150.681 461.437 150.739 461.264 150.762 461.091C151.179 457.897 150.578 454.653 149.046 451.82C147.513 448.987 145.126 446.709 142.225 445.31L142.028 445.217Z" fill="#455A64"/>
<path d="M272.689 445.264H309.022V451.595L288.054 454.818C284.977 455.242 282.057 456.441 279.57 458.302C277.083 460.163 275.108 462.625 273.833 465.458C273.098 467.098 272.705 468.871 272.677 470.668C272.677 470.668 265.295 470.552 264.025 461.726L263.955 461.195C263.538 458.001 264.139 454.757 265.672 451.924C267.204 449.091 269.591 446.813 272.493 445.414L272.689 445.264Z" fill="#455A64"/>
<path d="M272.689 445.264C272.521 445.389 272.343 445.501 272.158 445.599C271.63 445.882 271.121 446.199 270.633 446.546C268.774 447.845 267.224 449.537 266.092 451.502C264.324 454.535 263.674 458.091 264.256 461.553C264.496 463.668 265.333 465.672 266.67 467.329C268.204 469.09 270.372 470.173 272.701 470.345L272.423 470.61C272.453 468.474 272.979 466.374 273.96 464.476C274.953 462.444 276.339 460.63 278.038 459.138C279.824 457.563 281.889 456.337 284.126 455.522C286.442 454.768 288.831 454.26 291.254 454.009L309.011 451.294L308.768 451.571C308.768 449.411 308.768 447.308 308.768 445.264L309.045 445.541L282.878 445.437L275.404 445.356H273.405C273.175 445.382 272.942 445.382 272.712 445.356H273.394H275.369L282.821 445.275L309.045 445.171H309.323V445.449C309.323 447.493 309.323 449.596 309.323 451.756V452.01H309.08L291.323 454.748C288.94 454.998 286.59 455.498 284.311 456.239C282.155 457.016 280.164 458.191 278.442 459.704C276.823 461.07 275.502 462.754 274.562 464.652C273.622 466.551 273.083 468.622 272.978 470.737V471.026H272.712C271.483 470.939 270.283 470.607 269.184 470.05C268.085 469.492 267.108 468.72 266.312 467.78C264.928 466.052 264.07 463.963 263.84 461.761C263.276 458.205 263.984 454.565 265.838 451.479C267.013 449.494 268.63 447.806 270.563 446.546C271.069 446.212 271.598 445.915 272.146 445.656C272.314 445.508 272.496 445.377 272.689 445.264Z" fill="#263238"/>
<path d="M270.355 433.746C270.264 433.817 270.163 433.875 270.055 433.919L269.154 434.37L265.688 436.068L263.158 437.281C262.222 437.708 261.171 438.101 260.062 438.552C257.832 439.43 255.337 440.55 252.449 441.428L247.955 442.93C246.384 443.438 244.708 443.82 242.999 444.293C239.591 445.298 235.859 445.98 231.954 446.789C223.418 448.267 214.774 449.039 206.111 449.099C197.448 449.045 188.803 448.272 180.268 446.789C176.363 445.991 172.631 445.298 169.223 444.305C167.514 443.82 165.838 443.438 164.267 442.93L159.773 441.44C156.885 440.562 154.39 439.441 152.149 438.575C150.993 438.113 150 437.72 149.064 437.304L146.534 436.091L143.068 434.393L142.167 433.942L141.878 433.769C141.992 433.79 142.101 433.829 142.202 433.884L143.126 434.277C143.969 434.67 145.159 435.201 146.661 435.871L149.214 437.027C150.15 437.431 151.201 437.801 152.31 438.251C154.552 439.083 157.047 440.181 159.947 441.024L164.441 442.479C166 442.976 167.675 443.346 169.374 443.808C172.782 444.79 176.502 445.449 180.406 446.234C188.91 447.693 197.518 448.466 206.146 448.545C214.774 448.467 223.381 447.694 231.885 446.234C235.79 445.449 239.51 444.778 242.918 443.796C244.616 443.334 246.291 442.965 247.851 442.468L252.345 441.012C255.233 440.169 257.74 439.071 259.97 438.228C261.125 437.789 262.13 437.408 263.077 437.015L265.619 435.86L269.108 434.266L270.032 433.861L270.355 433.746Z" fill="#455A64"/>
<path d="M270.436 438.182C270.436 438.182 270.344 438.251 270.136 438.355L269.235 438.817L265.769 440.516L263.239 441.671C262.303 442.087 261.252 442.479 260.154 442.942C257.913 443.82 255.418 444.94 252.53 445.818L248.036 447.309C246.464 447.817 244.801 448.198 243.091 448.683C239.625 449.688 235.94 450.37 232.035 451.179C223.503 452.656 214.863 453.429 206.203 453.489C197.54 453.43 188.897 452.657 180.36 451.179C176.444 450.37 172.712 449.688 169.304 448.683C167.594 448.21 165.919 447.828 164.348 447.32L159.854 445.83C156.966 444.952 154.471 443.831 152.241 442.953C151.086 442.503 150.081 442.11 149.145 441.682L146.649 440.539L143.184 438.84L142.283 438.39C142.075 438.286 141.971 438.228 141.982 438.217L142.306 438.332L143.23 438.736L146.765 440.331L149.318 441.486C150.265 441.879 151.305 442.26 152.426 442.699C154.655 443.542 157.162 444.628 160.051 445.483L164.545 446.927C166.104 447.424 167.779 447.794 169.489 448.256C172.886 449.238 176.617 449.908 180.51 450.693C189.018 452.152 197.63 452.925 206.261 453.004C214.889 452.931 223.497 452.158 232.001 450.693C235.894 449.908 239.614 449.249 243.022 448.267C244.72 447.805 246.395 447.436 247.966 446.939L252.449 445.483C255.348 444.628 257.844 443.542 260.085 442.699C261.24 442.26 262.245 441.879 263.181 441.474L265.734 440.319L269.269 438.725L270.194 438.332L270.436 438.182Z" fill="#455A64"/>
<path d="M245.794 515.85C255.325 514.372 260.224 509.173 262.996 499.931C264.014 497.08 264.091 493.979 263.216 491.082C262.199 488.263 259.496 485.894 256.492 486.01C252.865 486.16 250.277 489.591 248.798 492.942C247.319 496.292 246.222 500 243.368 502.253C240.515 504.506 235.166 503.836 234.554 500.243C234.548 499.292 234.447 498.344 234.253 497.412C233.445 495.24 230.002 495.356 228.477 497.124C226.952 498.891 226.906 501.433 226.975 503.755C227.044 506.077 227.125 508.572 225.82 510.502C223.891 513.378 219.859 513.702 216.393 513.725L195.922 513.921C195.922 513.921 199.387 515.619 208.56 515.619C221.014 515.585 245.794 515.85 245.794 515.85Z" fill="#FF725E"/>
<path d="M206.203 513.886C199.353 514.002 192.086 514.014 186.24 510.421C182.544 508.168 179.447 504.54 175.173 503.893C173.947 503.639 172.67 503.862 171.603 504.517C171.083 504.853 170.696 505.36 170.509 505.95C170.321 506.54 170.345 507.177 170.575 507.752C168.68 507.036 167.236 505.522 165.607 504.286C163.978 503.05 161.864 502.161 159.97 502.888C159.004 503.354 158.23 504.142 157.782 505.115C157.333 506.089 157.236 507.189 157.509 508.226C157.832 509.246 158.369 510.187 159.084 510.983C159.8 511.78 160.676 512.415 161.656 512.847C163.625 513.701 165.707 514.266 167.837 514.522L217.132 515.458C217.121 514.21 206.203 513.886 206.203 513.886Z" fill="#FF725E"/>
<path d="M167.733 517.364L167.837 514.649L245.794 515.85V517.364H167.733Z" fill="#455A64"/>
<path d="M240.815 485.917C239.893 484.372 239.372 482.621 239.3 480.824C239.227 479.026 239.605 477.238 240.399 475.624C241.104 474.226 242.548 472.84 244.038 473.314C245.529 473.787 245.829 475.624 245.794 477.103C245.714 480.326 243.391 486.842 240.815 485.894" fill="#FF725E"/>
<path d="M195.171 389.21C195.24 389.21 195.101 389.765 195.171 390.758C195.304 392.159 195.676 393.526 196.268 394.802C197.208 396.713 197.94 398.719 198.452 400.786C198.814 403.447 198.145 406.147 196.58 408.33C195.101 410.698 193.334 412.651 192.179 414.695C191.615 415.648 191.177 416.669 190.873 417.734C190.64 418.658 190.573 419.616 190.677 420.564C190.792 421.958 191.374 423.273 192.329 424.296C192.715 424.634 193.12 424.951 193.542 425.243C193.542 425.243 193.403 425.243 193.149 425.116C192.795 424.944 192.464 424.727 192.167 424.469C191.095 423.452 190.416 422.09 190.249 420.622C190.106 419.616 190.157 418.593 190.399 417.607C190.689 416.482 191.128 415.402 191.705 414.395C192.86 412.281 194.639 410.294 196.072 407.983C197.563 405.925 198.223 403.379 197.92 400.855C197.428 398.824 196.748 396.844 195.887 394.94C195.313 393.614 194.995 392.191 194.951 390.747C194.95 390.358 194.993 389.971 195.078 389.591C195.088 389.46 195.12 389.331 195.171 389.21Z" fill="#263238"/>
<path d="M207.324 388.17C207.393 388.17 207.243 388.725 207.324 389.718C207.464 391.118 207.835 392.484 208.422 393.762C209.36 395.675 210.096 397.68 210.617 399.746C210.97 402.409 210.297 405.106 208.733 407.29C207.255 409.658 205.499 411.611 204.332 413.656C203.77 414.607 203.335 415.629 203.038 416.694C202.795 417.621 202.725 418.584 202.83 419.536C202.95 420.925 203.532 422.235 204.482 423.256C204.868 423.595 205.273 423.911 205.695 424.203C205.695 424.203 205.556 424.203 205.314 424.076C204.952 423.912 204.617 423.694 204.32 423.429C203.252 422.411 202.577 421.049 202.414 419.582C202.273 418.577 202.32 417.555 202.553 416.567C202.839 415.449 203.279 414.376 203.858 413.378C205.014 411.264 206.781 409.277 208.225 406.978C209.713 404.914 210.369 402.365 210.062 399.839C209.58 397.805 208.899 395.824 208.029 393.924C207.454 392.598 207.137 391.175 207.093 389.73C207.092 389.341 207.135 388.954 207.22 388.575C207.255 388.298 207.301 388.159 207.324 388.17Z" fill="#263238"/>
<path d="M219.431 387.154C219.501 387.154 219.362 387.708 219.431 388.702C219.591 390.108 219.982 391.478 220.587 392.757C221.523 394.665 222.255 396.667 222.77 398.73C223.123 401.392 222.45 404.089 220.887 406.273C219.408 408.642 217.652 410.594 216.497 412.639C215.931 413.591 215.492 414.612 215.191 415.677C214.952 416.605 214.885 417.568 214.995 418.519C215.112 419.907 215.689 421.217 216.636 422.239C217.024 422.58 217.433 422.897 217.86 423.187C217.86 423.187 217.71 423.187 217.467 423.059C217.108 422.89 216.774 422.673 216.474 422.413C215.406 421.394 214.731 420.032 214.568 418.565C214.427 417.56 214.474 416.538 214.706 415.55C215.001 414.439 215.44 413.371 216.012 412.373C217.167 410.248 218.946 408.261 220.379 405.962C221.865 403.896 222.524 401.349 222.227 398.822C221.737 396.789 221.052 394.809 220.182 392.907C219.613 391.579 219.296 390.157 219.246 388.713C219.248 388.324 219.295 387.937 219.385 387.558C219.362 387.281 219.431 387.154 219.431 387.154Z" fill="#263238"/>
<path d="M50.7624 517.78C50.7624 517.78 35.1894 441.705 50.7624 399.434H68.0914C68.0914 399.434 81.3192 444.016 68.0914 517.78H50.7624Z" fill="#FF725E"/>
<g opacity="0.7">
<path d="M50.7624 517.78C50.7624 517.78 35.1894 441.705 50.7624 399.434H68.0914C68.0914 399.434 81.3192 444.016 68.0914 517.78H50.7624Z" fill="white"/>
</g>
<path d="M63.5281 359.947C66.394 355.043 70.4825 350.965 75.3946 348.112C80.3068 345.259 85.8746 343.729 91.5548 343.67C88.8734 349.03 84.7004 353.502 79.5378 356.548C74.3751 359.593 68.4426 361.083 62.4537 360.837" fill="#455A64"/>
<path d="M67.8141 328.235C63.8808 324.13 61.0806 319.074 59.6874 313.562C58.2942 308.05 58.3557 302.27 59.8659 296.789C64.2851 300.838 67.439 306.079 68.9476 311.88C70.4562 317.68 70.2552 323.794 68.3686 329.483" fill="#455A64"/>
<path d="M52.2411 328.686C47.5887 326.808 43.5101 323.742 40.4126 319.795C37.3151 315.849 35.307 311.158 34.5887 306.193C39.6166 307.848 44.0513 310.936 47.3476 315.078C50.6438 319.22 52.6579 324.235 53.1422 329.506" fill="#455A64"/>
<path d="M47.9782 294.906C47.1892 291.335 47.3512 287.619 48.4479 284.13C49.5447 280.641 51.5378 277.501 54.2282 275.024C55.3063 278.735 55.276 282.681 54.141 286.376C53.0059 290.07 50.8156 293.352 47.8396 295.818" fill="#455A64"/>
<path d="M60.0045 389.638C60.3648 385.998 61.6735 382.516 63.8001 379.54C65.9266 376.564 68.7965 374.198 72.1233 372.678C71.9971 376.537 70.7456 380.275 68.5227 383.432C66.2997 386.589 63.2024 389.027 59.6117 390.446" fill="#455A64"/>
<path d="M41.1506 263.067C41.1506 263.067 44.2698 274.723 47.9089 293.866L49.2952 301.387C49.7689 303.998 50.1732 306.736 50.6353 309.566C51.5942 315.204 52.3798 321.281 53.2578 327.658C54.8405 340.446 56.2152 354.541 57.0586 369.386C57.9019 384.231 58.0175 398.406 57.8326 411.287C57.6593 417.734 57.5438 423.857 57.2088 429.575C57.047 432.429 56.9546 435.201 56.7698 437.847C56.5849 440.492 56.3885 443.046 56.2037 445.472C54.6787 464.903 52.8534 476.814 52.8534 476.814C52.8534 476.814 52.8534 476.629 52.8534 476.259L53.0729 474.7C53.2347 473.244 53.4542 471.153 53.743 468.461C53.8932 467.11 54.0665 465.608 54.2397 463.956C54.413 462.304 54.5632 460.49 54.7365 458.595C55.06 454.737 55.5221 450.358 55.8109 445.506C55.9726 443.065 56.1459 440.523 56.3308 437.882C56.5041 435.224 56.5849 432.463 56.7236 429.61C57.047 423.891 57.1395 417.78 57.3012 411.345C57.4514 398.475 57.3012 384.312 56.481 369.478C55.6607 354.645 54.2744 340.597 52.7263 327.785C51.8714 321.408 51.109 315.342 50.1617 309.693C49.7111 306.874 49.3183 304.136 48.8562 301.514C48.3941 298.891 47.9435 296.396 47.5161 293.993C46.6959 289.199 45.7601 284.89 45.0207 281.1C44.6279 279.206 44.2698 277.438 43.9463 275.821C43.6228 274.203 43.2532 272.725 42.9528 271.396L41.6127 265.273C41.4625 264.592 41.3585 264.118 41.2661 263.679C41.1737 263.24 41.1506 263.067 41.1506 263.067Z" fill="#263238"/>
<path d="M79.4476 290.793C79.4306 290.936 79.3956 291.075 79.3437 291.209C79.2512 291.498 79.1357 291.891 78.974 292.364L77.5183 296.87L76.4439 300.128C76.0858 301.283 75.693 302.623 75.2887 304.021C74.4684 306.828 73.4518 309.994 72.5276 313.563C72.0539 315.342 71.5456 317.202 71.0257 319.143C70.5059 321.084 70.0553 323.117 69.5355 325.22C68.4726 329.414 67.5599 333.942 66.5549 338.702C64.6833 348.244 62.962 358.804 61.7028 369.963C60.4435 381.123 59.889 391.81 59.6348 401.537C59.6348 406.401 59.4846 411.022 59.6348 415.342C59.6348 417.503 59.6348 419.594 59.7619 421.604C59.889 423.614 59.9352 425.532 60.0161 427.38C60.1316 431.065 60.4435 434.381 60.6284 437.292C60.7439 438.748 60.8363 440.111 60.9287 441.359C61.0211 442.607 61.1713 443.739 61.2637 444.825C61.4601 446.846 61.6103 448.429 61.7143 449.538C61.7143 450.058 61.7836 450.462 61.8183 450.774C61.8286 450.913 61.8286 451.052 61.8183 451.19C61.7791 451.054 61.7521 450.915 61.7374 450.774C61.7374 450.474 61.645 450.07 61.5872 449.561C61.4486 448.406 61.2637 446.869 61.0211 444.848L60.6399 441.44C60.5244 440.192 60.4089 438.84 60.2818 437.385C60.0623 434.462 59.7272 431.146 59.5771 427.461C59.4846 425.624 59.3807 423.695 59.2882 421.685C59.1958 419.675 59.1727 417.583 59.115 415.423C58.9763 411.091 59.115 406.458 59.115 401.56C59.3345 391.821 59.9352 381.112 61.1367 369.929C62.3382 358.746 64.1404 348.175 66.0466 338.621C67.0747 333.861 67.999 329.379 69.0849 325.139C69.6163 323.037 70.0784 320.992 70.6099 319.051C71.1413 317.11 71.6611 315.262 72.1579 313.482C73.1052 309.924 74.145 306.759 74.9999 303.963C75.4389 302.565 75.8548 301.271 76.2244 300.07C76.5941 298.868 77.01 297.759 77.3797 296.835C78.0613 294.917 78.535 293.369 78.9509 292.353C79.1357 291.867 79.2743 291.486 79.3783 291.197C79.3854 291.06 79.4087 290.925 79.4476 290.793Z" fill="#263238"/>
<path d="M76.9292 299.4C73.1399 296.211 72.9088 290.273 74.7688 285.687C76.6288 281.1 80.1293 277.415 83.0521 273.418C85.9749 269.421 88.4587 264.638 87.7887 259.739C87.5063 258.607 87.4242 257.434 87.5461 256.274C87.7887 255.118 88.9324 254.044 90.053 254.391C91.1736 254.737 91.4509 255.869 91.6588 256.886C92.3064 260.05 92.5009 263.29 92.2364 266.509C92.9944 264.636 94.1682 262.96 95.6692 261.607C97.1703 260.254 98.9593 259.26 100.901 258.7C101.318 260.583 101.253 262.542 100.712 264.394C100.171 266.246 99.1709 267.931 97.8048 269.294C100.312 268.254 102.992 267.179 105.661 267.699C108.329 268.219 110.709 271.038 109.704 273.568C108.549 276.433 104.656 276.491 101.617 277.034C98.2175 277.654 95.1476 279.459 92.9527 282.129C90.2032 285.479 89.1057 289.857 86.876 293.577C84.6463 297.297 80.3834 300.509 76.2707 299.192" fill="#FF725E"/>
<path d="M44.4084 275.902C48.602 273.291 49.6649 267.434 48.4634 262.639C47.2619 257.845 44.3276 253.697 41.9939 249.331C39.6603 244.964 37.8696 239.88 39.2213 235.121C39.6685 234.018 39.915 232.844 39.9491 231.655C39.8682 230.5 38.8978 229.252 37.731 229.437C36.5642 229.622 36.1367 230.708 35.7901 231.747C34.7035 234.786 34.0577 237.964 33.8724 241.186C33.3868 239.223 32.4602 237.396 31.1631 235.845C29.8659 234.294 28.2323 233.058 26.3863 232.233C25.7082 234.04 25.4978 235.99 25.7745 237.9C26.0512 239.811 26.806 241.621 27.969 243.161C25.6585 241.775 23.1169 240.343 20.4136 240.481C17.7102 240.62 14.9491 243.081 15.5845 245.715C16.3008 248.718 20.2056 249.331 23.1053 250.336C26.3815 251.435 29.1666 253.651 30.9727 256.597C33.2139 260.294 33.6991 264.788 35.3742 268.785C37.0494 272.782 40.8271 276.583 45.09 275.832" fill="#FF725E"/>
<path d="M39.4523 333.099C39.6265 333.33 39.7702 333.582 39.8798 333.85L41.0351 336.045C41.5203 337.004 42.0979 338.182 42.7102 339.58C43.3225 340.978 44.085 342.537 44.8012 344.317C45.5175 346.096 46.3377 348.025 47.1117 350.151C47.8858 352.276 48.6829 354.541 49.5032 356.944C51.0512 361.773 52.5646 367.156 53.8469 372.863C55.1293 378.57 55.9957 384.104 56.6196 389.141C56.8969 391.659 57.1857 394.062 57.3243 396.315C57.4629 398.568 57.6131 400.659 57.694 402.577C57.7749 404.494 57.7864 406.227 57.8095 407.752C57.8326 409.277 57.8095 410.583 57.8095 411.657C57.8095 412.731 57.694 413.471 57.694 414.129C57.694 414.788 57.694 414.984 57.6247 414.984C57.5926 414.696 57.5926 414.406 57.6247 414.118C57.6247 413.505 57.6247 412.685 57.6247 411.657C57.6247 410.629 57.6247 409.277 57.5554 407.752C57.486 406.227 57.486 404.506 57.3474 402.6C57.2088 400.694 57.1279 398.591 56.9084 396.35C56.6889 394.108 56.4463 391.729 56.1575 389.21C55.499 384.196 54.5863 378.697 53.3502 373.036C52.114 367.376 50.566 361.981 49.0526 357.152C48.2555 354.749 47.5161 352.461 46.7421 350.359C45.968 348.256 45.2171 346.292 44.5009 344.513C43.7846 342.734 43.103 341.151 42.5138 339.753C41.9246 338.355 41.3585 337.154 40.9311 336.183L39.9144 333.931C39.7343 333.669 39.5796 333.39 39.4523 333.099Z" fill="#263238"/>
<path d="M42.3174 344.224C44.4084 342.526 44.6279 339.291 43.6113 336.784C42.5947 334.277 40.7693 332.232 39.2097 330.026C37.6501 327.819 36.3447 325.197 36.749 322.54C36.9111 321.918 36.9658 321.274 36.9107 320.634C36.7837 319.998 36.1714 319.409 35.5591 319.582C34.9468 319.756 34.7851 320.379 34.658 320.934C34.2788 322.651 34.1466 324.413 34.2652 326.167C33.8734 325.142 33.2538 324.22 32.4533 323.469C31.6528 322.719 30.6922 322.16 29.6441 321.835C29.4037 322.854 29.4237 323.918 29.7023 324.927C29.9809 325.937 30.5092 326.86 31.2384 327.611C29.9337 326.894 28.4492 326.569 26.9639 326.676C25.5198 326.93 24.1913 328.455 24.6534 329.83C25.2541 331.412 27.3798 331.47 29.0318 331.793C30.876 332.171 32.5307 333.18 33.7107 334.647C35.1779 336.495 35.7439 338.887 36.9223 340.932C38.1007 342.976 40.3881 344.779 42.6986 344.085" fill="#FF725E"/>
</svg>
